<svg width="277" height="256" viewBox="0 0 277 256" fill="none" xmlns="http://www.w3.org/2000/svg">
<g clip-path="url(#clip0_1_4155)">
<path d="M29.2171 176.178H13.4504V182.841H29.2171V176.178Z" fill="#EBEBEB"/>
<path d="M20.4229 184.58H4.65625V191.242H20.4229V184.58Z" fill="#EBEBEB"/>
<path d="M52.2064 0.869324H36.4397V7.53205H52.2064V0.869324Z" fill="#EBEBEB"/>
<path d="M43.4061 9.27063H27.6394V15.9334H43.4061V9.27063Z" fill="#EBEBEB"/>
<path d="M34.6473 0.869324H18.8806V7.53205H34.6473V0.869324Z" fill="#EBEBEB"/>
<path d="M272.541 168.694H256.774V175.357H272.541V168.694Z" fill="#EBEBEB"/>
<path d="M177.917 0.869324H162.15V7.53205H177.917V0.869324Z" fill="#EBEBEB"/>
<path d="M264.658 104.299H248.891V110.962H264.658V104.299Z" fill="#EBEBEB"/>
<path d="M254.184 0H238.417V6.66273H254.184V0Z" fill="#EBEBEB"/>
<path d="M262.978 8.40137H247.212V15.0641H262.978V8.40137Z" fill="#EBEBEB"/>
<path d="M18.8807 56.7255H3.11401V63.3882H18.8807V56.7255Z" fill="#EBEBEB"/>
<path d="M36.9576 90.8965H21.1909V97.5593H36.9576V90.8965Z" fill="#EBEBEB"/>
<path d="M134.517 256C204.836 256 261.841 253.268 261.841 249.897C261.841 246.526 204.836 243.794 134.517 243.794C64.1976 243.794 7.19263 246.526 7.19263 249.897C7.19263 253.268 64.1976 256 134.517 256Z" fill="#EBEBEB"/>
<path d="M0 229.325L34.5343 229.176L69.0685 229.129L138.143 229.028L207.211 229.123L241.752 229.176L276.286 229.325L241.752 229.468L207.211 229.522L138.143 229.623L69.0685 229.522L34.5343 229.468L0 229.325Z" fill="#001640"/>
<path d="M256.774 25.2338H57.6484V224.359H256.774V25.2338Z" fill="#455A64"/>
<path d="M247.367 36.1061H67.05V213.207H247.367V36.1061Z" fill="#DBDBDB"/>
<path d="M247.367 168.878H67.05V175.172H247.367V168.878Z" fill="#455A64"/>
<path d="M247.367 121.864H67.05V128.158H247.367V121.864Z" fill="#455A64"/>
<path d="M247.367 74.8381H67.05V81.1316H247.367V74.8381Z" fill="#455A64"/>
<path d="M73.3496 57.2733H87.2288C88.247 57.2733 89.0686 58.1009 89.0686 59.1131V72.9923C89.0686 74.0105 88.241 74.8321 87.2288 74.8321H73.3496C72.3314 74.8321 71.5098 74.0045 71.5098 72.9923V59.1131C71.5098 58.0949 72.3374 57.2733 73.3496 57.2733Z" fill="white"/>
<path d="M105.359 57.2733H91.4741C90.458 57.2733 89.6343 58.097 89.6343 59.1131V72.9982C89.6343 74.0144 90.458 74.8381 91.4741 74.8381H105.359C106.375 74.8381 107.199 74.0144 107.199 72.9982V59.1131C107.199 58.097 106.375 57.2733 105.359 57.2733Z" fill="white"/>
<path d="M87.2348 39.3214H73.3496C72.3335 39.3214 71.5098 40.1451 71.5098 41.1613V55.0464C71.5098 56.0625 72.3335 56.8862 73.3496 56.8862H87.2348C88.2509 56.8862 89.0746 56.0625 89.0746 55.0464V41.1613C89.0746 40.1451 88.2509 39.3214 87.2348 39.3214Z" fill="white"/>
<path d="M105.359 39.3214H91.4741C90.458 39.3214 89.6343 40.1451 89.6343 41.1613V55.0464C89.6343 56.0625 90.458 56.8862 91.4741 56.8862H105.359C106.375 56.8862 107.199 56.0625 107.199 55.0464V41.1613C107.199 40.1451 106.375 39.3214 105.359 39.3214Z" fill="white"/>
<path d="M123.46 57.2733H109.575C108.559 57.2733 107.735 58.097 107.735 59.1131V72.9982C107.735 74.0144 108.559 74.8381 109.575 74.8381H123.46C124.476 74.8381 125.3 74.0144 125.3 72.9982V59.1131C125.3 58.097 124.476 57.2733 123.46 57.2733Z" fill="white"/>
<path d="M123.46 39.3214H109.575C108.559 39.3214 107.735 40.1451 107.735 41.1613V55.0464C107.735 56.0625 108.559 56.8862 109.575 56.8862H123.46C124.476 56.8862 125.3 56.0625 125.3 55.0464V41.1613C125.3 40.1451 124.476 39.3214 123.46 39.3214Z" fill="white"/>
<path d="M126.104 52.1288H70.3428V66.0616H126.104V52.1288Z" fill="#C7C7C7"/>
<path d="M144.627 57.2733H130.742C129.726 57.2733 128.902 58.097 128.902 59.1131V72.9982C128.902 74.0144 129.726 74.8381 130.742 74.8381H144.627C145.643 74.8381 146.467 74.0144 146.467 72.9982V59.1131C146.467 58.097 145.643 57.2733 144.627 57.2733Z" fill="white"/>
<path d="M162.757 57.2733H148.872C147.856 57.2733 147.032 58.097 147.032 59.1131V72.9982C147.032 74.0144 147.856 74.8381 148.872 74.8381H162.757C163.774 74.8381 164.597 74.0144 164.597 72.9982V59.1131C164.597 58.097 163.774 57.2733 162.757 57.2733Z" fill="white"/>
<path d="M144.627 39.3214H130.742C129.726 39.3214 128.902 40.1451 128.902 41.1613V55.0464C128.902 56.0625 129.726 56.8862 130.742 56.8862H144.627C145.643 56.8862 146.467 56.0625 146.467 55.0464V41.1613C146.467 40.1451 145.643 39.3214 144.627 39.3214Z" fill="white"/>
<path d="M162.757 39.3214H148.872C147.856 39.3214 147.032 40.1451 147.032 41.1613V55.0464C147.032 56.0625 147.856 56.8862 148.872 56.8862H162.757C163.774 56.8862 164.597 56.0625 164.597 55.0464V41.1613C164.597 40.1451 163.774 39.3214 162.757 39.3214Z" fill="white"/>
<path d="M180.858 57.2733H166.973C165.957 57.2733 165.133 58.097 165.133 59.1131V72.9982C165.133 74.0144 165.957 74.8381 166.973 74.8381H180.858C181.874 74.8381 182.698 74.0144 182.698 72.9982V59.1131C182.698 58.097 181.874 57.2733 180.858 57.2733Z" fill="white"/>
<path d="M180.858 39.3214H166.973C165.957 39.3214 165.133 40.1451 165.133 41.1613V55.0464C165.133 56.0625 165.957 56.8862 166.973 56.8862H180.858C181.874 56.8862 182.698 56.0625 182.698 55.0464V41.1613C182.698 40.1451 181.874 39.3214 180.858 39.3214Z" fill="white"/>
<path d="M183.502 52.1288H127.741V66.0616H183.502V52.1288Z" fill="#EBEBEB"/>
<path d="M85.514 112.361V121.864H70.3428V112.361C70.3428 108.027 72.7066 105.383 72.7066 104.026C72.7066 102.668 70.9501 100.572 70.9501 97.9284C70.9501 95.2848 74.4035 93.0817 74.4035 91.1168V85.5616H81.4414V91.1168C81.4414 93.0817 84.8948 95.2848 84.8948 97.9284C84.8948 100.572 83.1383 102.674 83.1383 104.026C83.1383 105.377 85.5021 108.027 85.5021 112.361H85.514Z" fill="#C7C7C7"/>
<path d="M82.5309 83.6682H73.3198V86.7822H82.5309V83.6682Z" fill="#EBEBEB"/>
<path d="M85.514 112.939H70.3428V118.458H85.514V112.939Z" fill="white"/>
<path d="M102.37 112.361V121.864H87.199V112.361C87.199 108.027 89.5628 105.383 89.5628 104.026C89.5628 102.668 87.8063 100.572 87.8063 97.9284C87.8063 95.2848 91.2597 93.0817 91.2597 91.1168V85.5616H98.2976V91.1168C98.2976 93.0817 101.751 95.2848 101.751 97.9284C101.751 100.572 99.9945 102.674 99.9945 104.026C99.9945 105.377 102.358 108.027 102.358 112.361H102.37Z" fill="#C7C7C7"/>
<path d="M99.3932 83.6682H90.1821V86.7822H99.3932V83.6682Z" fill="#EBEBEB"/>
<path d="M102.376 112.939H87.2048V118.458H102.376V112.939Z" fill="white"/>
<path d="M178.566 93.8319V118.042C178.566 119.733 177.196 121.102 175.505 121.102H161.59C159.899 121.102 158.53 119.733 158.53 118.042V93.8319C158.53 92.1469 159.899 90.7774 161.59 90.7774H161.686V89.3187H175.41V90.7774H175.505C177.196 90.7774 178.566 92.1469 178.566 93.8319Z" fill="white"/>
<path d="M174.791 95.3979H162.311C160.93 95.3979 159.81 96.5175 159.81 97.8986V117.369C159.81 118.75 160.93 119.87 162.311 119.87H174.791C176.172 119.87 177.292 118.75 177.292 117.369V97.8986C177.292 96.5175 176.172 95.3979 174.791 95.3979Z" fill="#A6A6A6"/>
<path d="M177.363 86.3297H159.661V89.2412H177.363V86.3297Z" fill="#C7C7C7"/>
<path d="M173.749 105.21H163.353V115.702H173.749V105.21Z" fill="#EBEBEB"/>
<path d="M80.0361 153.368V167.14C80.0361 168.098 79.2561 168.878 78.2975 168.878H70.3844C69.4257 168.878 68.6458 168.098 68.6458 167.14V153.368C68.6458 152.409 69.4257 151.629 70.3844 151.629H70.438V150.802H78.2439V151.629H78.2975C79.2561 151.629 80.0361 152.409 80.0361 153.368Z" fill="white"/>
<path d="M78.3035 154.255H70.3607C69.8082 154.255 69.3604 154.703 69.3604 155.255V167.176C69.3604 167.728 69.8082 168.176 70.3607 168.176H78.3035C78.856 168.176 79.3038 167.728 79.3038 167.176V155.255C79.3038 154.703 78.856 154.255 78.3035 154.255Z" fill="#EBEBEB"/>
<path d="M79.3454 149.099H69.2769V150.754H79.3454V149.099Z" fill="#A6A6A6"/>
<path d="M79.9826 133.606V147.378C79.9826 148.337 79.2026 149.116 78.244 149.116H70.3309C69.3723 149.116 68.5923 148.337 68.5923 147.378V133.606C68.5923 132.647 69.3723 131.867 70.3309 131.867H70.3845V131.04H78.1904V131.867H78.244C79.2026 131.867 79.9826 132.647 79.9826 133.606Z" fill="white"/>
<path d="M78.2559 134.499H70.313C69.7606 134.499 69.3127 134.947 69.3127 135.499V147.42C69.3127 147.972 69.7606 148.42 70.313 148.42H78.2559C78.8084 148.42 79.2562 147.972 79.2562 147.42V135.499C79.2562 134.947 78.8084 134.499 78.2559 134.499Z" fill="#EBEBEB"/>
<path d="M79.298 129.337H69.2295V130.992H79.298V129.337Z" fill="#A6A6A6"/>
<path d="M92.0935 153.368V167.14C92.0935 168.098 91.3135 168.878 90.3549 168.878H82.4418C81.4831 168.878 80.7031 168.098 80.7031 167.14V153.368C80.7031 152.409 81.4831 151.629 82.4418 151.629H82.4953V150.802H90.3013V151.629H90.3549C91.3135 151.629 92.0935 152.409 92.0935 153.368Z" fill="white"/>
<path d="M90.3609 154.255H82.418C81.8656 154.255 81.4177 154.703 81.4177 155.255V167.176C81.4177 167.728 81.8656 168.176 82.418 168.176H90.3609C90.9134 168.176 91.3612 167.728 91.3612 167.176V155.255C91.3612 154.703 90.9134 154.255 90.3609 154.255Z" fill="#EBEBEB"/>
<path d="M91.4027 149.099H81.3342V150.754H91.4027V149.099Z" fill="#A6A6A6"/>
<path d="M92.0398 133.606V147.378C92.0398 148.337 91.2598 149.116 90.3011 149.116H82.388C81.4294 149.116 80.6494 148.337 80.6494 147.378V133.606C80.6494 132.647 81.4294 131.867 82.388 131.867H82.4416V131.04H90.2476V131.867H90.3011C91.2598 131.867 92.0398 132.647 92.0398 133.606Z" fill="white"/>
<path d="M90.313 134.499H82.3702C81.8177 134.499 81.3699 134.947 81.3699 135.499V147.42C81.3699 147.972 81.8177 148.42 82.3702 148.42H90.313C90.8655 148.42 91.3134 147.972 91.3134 147.42V135.499C91.3134 134.947 90.8655 134.499 90.313 134.499Z" fill="#EBEBEB"/>
<path d="M91.3551 129.337H81.2866V130.992H91.3551V129.337Z" fill="#A6A6A6"/>
<path d="M104.151 153.368V167.14C104.151 168.098 103.371 168.878 102.412 168.878H94.4989C93.5403 168.878 92.7603 168.098 92.7603 167.14V153.368C92.7603 152.409 93.5403 151.629 94.4989 151.629H94.5525V150.802H102.358V151.629H102.412C103.371 151.629 104.151 152.409 104.151 153.368Z" fill="white"/>
<path d="M102.418 154.255H94.4752C93.9227 154.255 93.4749 154.703 93.4749 155.255V167.176C93.4749 167.728 93.9227 168.176 94.4752 168.176H102.418C102.97 168.176 103.418 167.728 103.418 167.176V155.255C103.418 154.703 102.97 154.255 102.418 154.255Z" fill="#EBEBEB"/>
<path d="M103.46 149.099H93.3914V150.754H103.46V149.099Z" fill="#A6A6A6"/>
<path d="M104.097 133.606V147.378C104.097 148.337 103.317 149.116 102.358 149.116H94.4452C93.4865 149.116 92.7065 148.337 92.7065 147.378V133.606C92.7065 132.647 93.4865 131.867 94.4452 131.867H94.4988V131.04H102.305V131.867H102.358C103.317 131.867 104.097 132.647 104.097 133.606Z" fill="white"/>
<path d="M102.37 134.499H94.4273C93.8748 134.499 93.427 134.947 93.427 135.499V147.42C93.427 147.972 93.8748 148.42 94.4273 148.42H102.37C102.923 148.42 103.37 147.972 103.37 147.42V135.499C103.37 134.947 102.923 134.499 102.37 134.499Z" fill="#EBEBEB"/>
<path d="M103.412 129.337H93.3438V130.992H103.412V129.337Z" fill="#A6A6A6"/>
<path d="M116.202 153.368V167.14C116.202 168.098 115.422 168.878 114.463 168.878H106.55C105.592 168.878 104.812 168.098 104.812 167.14V153.368C104.812 152.409 105.592 151.629 106.55 151.629H106.604V150.802H114.41V151.629H114.463C115.422 151.629 116.202 152.409 116.202 153.368Z" fill="white"/>
<path d="M114.475 154.255H106.532C105.98 154.255 105.532 154.703 105.532 155.255V167.176C105.532 167.728 105.98 168.176 106.532 168.176H114.475C115.028 168.176 115.475 167.728 115.475 167.176V155.255C115.475 154.703 115.028 154.255 114.475 154.255Z" fill="#EBEBEB"/>
<path d="M115.517 149.099H105.449V150.754H115.517V149.099Z" fill="#A6A6A6"/>
<path d="M116.154 133.606V147.378C116.154 148.337 115.374 149.116 114.416 149.116H106.503C105.544 149.116 104.764 148.337 104.764 147.378V133.606C104.764 132.647 105.544 131.867 106.503 131.867H106.556V131.04H114.362V131.867H114.416C115.374 131.867 116.154 132.647 116.154 133.606Z" fill="white"/>
<path d="M114.428 134.499H106.485C105.932 134.499 105.484 134.947 105.484 135.499V147.42C105.484 147.972 105.932 148.42 106.485 148.42H114.428C114.98 148.42 115.428 147.972 115.428 147.42V135.499C115.428 134.947 114.98 134.499 114.428 134.499Z" fill="#EBEBEB"/>
<path d="M115.464 129.337H105.395V130.992H115.464V129.337Z" fill="#A6A6A6"/>
<path d="M128.259 153.368V167.14C128.259 168.098 127.479 168.878 126.52 168.878H118.607C117.649 168.878 116.869 168.098 116.869 167.14V153.368C116.869 152.409 117.649 151.629 118.607 151.629H118.661V150.802H126.467V151.629H126.52C127.479 151.629 128.259 152.409 128.259 153.368Z" fill="white"/>
<path d="M126.532 154.255H118.589C118.037 154.255 117.589 154.703 117.589 155.255V167.176C117.589 167.728 118.037 168.176 118.589 168.176H126.532C127.085 168.176 127.533 167.728 127.533 167.176V155.255C127.533 154.703 127.085 154.255 126.532 154.255Z" fill="#EBEBEB"/>
<path d="M127.574 149.099H117.506V150.754H127.574V149.099Z" fill="#A6A6A6"/>
<path d="M128.211 133.606V147.378C128.211 148.337 127.431 149.116 126.473 149.116H118.56C117.601 149.116 116.821 148.337 116.821 147.378V133.606C116.821 132.647 117.601 131.867 118.56 131.867H118.613V131.04H126.419V131.867H126.473C127.431 131.867 128.211 132.647 128.211 133.606Z" fill="white"/>
<path d="M126.485 134.499H118.542C117.989 134.499 117.542 134.947 117.542 135.499V147.42C117.542 147.972 117.989 148.42 118.542 148.42H126.485C127.037 148.42 127.485 147.972 127.485 147.42V135.499C127.485 134.947 127.037 134.499 126.485 134.499Z" fill="#EBEBEB"/>
<path d="M127.521 129.337H117.452V130.992H127.521V129.337Z" fill="#A6A6A6"/>
<path d="M140.316 153.368V167.14C140.316 168.098 139.536 168.878 138.578 168.878H130.665C129.706 168.878 128.926 168.098 128.926 167.14V153.368C128.926 152.409 129.706 151.629 130.665 151.629H130.718V150.802H138.524V151.629H138.578C139.536 151.629 140.316 152.409 140.316 153.368Z" fill="white"/>
<path d="M138.596 154.255H130.647C130.094 154.255 129.646 154.703 129.646 155.255V167.176C129.646 167.728 130.094 168.176 130.647 168.176H138.596C139.148 168.176 139.596 167.728 139.596 167.176V155.255C139.596 154.703 139.148 154.255 138.596 154.255Z" fill="#EBEBEB"/>
<path d="M139.632 149.099H129.563V150.754H139.632V149.099Z" fill="#A6A6A6"/>
<path d="M140.269 133.606V147.378C140.269 148.337 139.489 149.116 138.53 149.116H130.617C129.658 149.116 128.878 148.337 128.878 147.378V133.606C128.878 132.647 129.658 131.867 130.617 131.867H130.671V131.04H138.477V131.867H138.53C139.489 131.867 140.269 132.647 140.269 133.606Z" fill="white"/>
<path d="M138.542 134.499H130.599C130.047 134.499 129.599 134.947 129.599 135.499V147.42C129.599 147.972 130.047 148.42 130.599 148.42H138.542C139.095 148.42 139.542 147.972 139.542 147.42V135.499C139.542 134.947 139.095 134.499 138.542 134.499Z" fill="#EBEBEB"/>
<path d="M139.578 129.337H129.51V130.992H139.578V129.337Z" fill="#A6A6A6"/>
<path d="M152.374 153.368V167.14C152.374 168.098 151.594 168.878 150.635 168.878H142.722C141.763 168.878 140.983 168.098 140.983 167.14V153.368C140.983 152.409 141.763 151.629 142.722 151.629H142.775V150.802H150.581V151.629H150.635C151.594 151.629 152.374 152.409 152.374 153.368Z" fill="white"/>
<path d="M150.647 154.255H142.704C142.151 154.255 141.704 154.703 141.704 155.255V167.176C141.704 167.728 142.151 168.176 142.704 168.176H150.647C151.199 168.176 151.647 167.728 151.647 167.176V155.255C151.647 154.703 151.199 154.255 150.647 154.255Z" fill="#EBEBEB"/>
<path d="M151.689 149.099H141.62V150.754H151.689V149.099Z" fill="#A6A6A6"/>
<path d="M152.326 133.606V147.378C152.326 148.337 151.546 149.116 150.587 149.116H142.674C141.716 149.116 140.936 148.337 140.936 147.378V133.606C140.936 132.647 141.716 131.867 142.674 131.867H142.728V131.04H150.534V131.867H150.587C151.546 131.867 152.326 132.647 152.326 133.606Z" fill="white"/>
<path d="M150.599 134.499H142.656C142.104 134.499 141.656 134.947 141.656 135.499V147.42C141.656 147.972 142.104 148.42 142.656 148.42H150.599C151.152 148.42 151.599 147.972 151.599 147.42V135.499C151.599 134.947 151.152 134.499 150.599 134.499Z" fill="#EBEBEB"/>
<path d="M151.635 129.337H141.567V130.992H151.635V129.337Z" fill="#A6A6A6"/>
<path d="M200.751 93.8319V118.042C200.751 119.733 199.382 121.102 197.691 121.102H183.776C182.085 121.102 180.715 119.733 180.715 118.042V93.8319C180.715 92.1469 182.085 90.7774 183.776 90.7774H183.871V89.3187H197.595V90.7774H197.691C199.382 90.7774 200.751 92.1469 200.751 93.8319Z" fill="white"/>
<path d="M196.97 95.3979H184.49C183.109 95.3979 181.99 96.5175 181.99 97.8986V117.369C181.99 118.75 183.109 119.87 184.49 119.87H196.97C198.351 119.87 199.471 118.75 199.471 117.369V97.8986C199.471 96.5175 198.351 95.3979 196.97 95.3979Z" fill="#A6A6A6"/>
<path d="M199.542 86.3297H181.841V89.2412H199.542V86.3297Z" fill="#C7C7C7"/>
<path d="M195.934 105.21H185.538V115.702H195.934V105.21Z" fill="#EBEBEB"/>
<path d="M222.931 93.8319V118.042C222.931 119.733 221.561 121.102 219.87 121.102H205.955C204.264 121.102 202.895 119.733 202.895 118.042V93.8319C202.895 92.1469 204.264 90.7774 205.955 90.7774H206.05V89.3187H219.775V90.7774H219.87C221.561 90.7774 222.931 92.1469 222.931 93.8319Z" fill="white"/>
<path d="M219.156 95.3979H206.676C205.295 95.3979 204.175 96.5175 204.175 97.8986V117.369C204.175 118.75 205.295 119.87 206.676 119.87H219.156C220.537 119.87 221.657 118.75 221.657 117.369V97.8986C221.657 96.5175 220.537 95.3979 219.156 95.3979Z" fill="#A6A6A6"/>
<path d="M221.728 86.3297H204.026V89.2412H221.728V86.3297Z" fill="#C7C7C7"/>
<path d="M218.114 105.21H207.718V115.702H218.114V105.21Z" fill="#EBEBEB"/>
<path d="M245.116 93.8319V118.042C245.116 119.733 243.746 121.102 242.055 121.102H228.141C226.45 121.102 225.08 119.733 225.08 118.042V93.8319C225.08 92.1469 226.45 90.7774 228.141 90.7774H228.236V89.3187H241.96V90.7774H242.055C243.746 90.7774 245.116 92.1469 245.116 93.8319Z" fill="white"/>
<path d="M241.335 95.3979H228.855C227.474 95.3979 226.354 96.5175 226.354 97.8986V117.369C226.354 118.75 227.474 119.87 228.855 119.87H241.335C242.716 119.87 243.836 118.75 243.836 117.369V97.8986C243.836 96.5175 242.716 95.3979 241.335 95.3979Z" fill="#A6A6A6"/>
<path d="M243.907 86.3297H226.205V89.2412H243.907V86.3297Z" fill="#C7C7C7"/>
<path d="M240.299 105.21H229.903V115.702H240.299V105.21Z" fill="#EBEBEB"/>
<path d="M181.99 130.135H154.517V168.819H181.99V130.135Z" fill="#C7C7C7"/>
<path d="M178.078 141.489H158.435V143.186H178.078V141.489Z" fill="#A6A6A6"/>
<path d="M176.065 144.71H160.448V146.407H176.065V144.71Z" fill="#A6A6A6"/>
<path d="M176.065 135.565H160.448V137.262H176.065V135.565Z" fill="#EBEBEB"/>
<path d="M178.929 157.214C178.929 160.501 174.148 163.168 168.253 163.168C162.359 163.168 157.578 160.501 157.578 157.214C157.578 153.927 162.359 151.26 168.253 151.26C174.148 151.26 178.929 153.927 178.929 157.214Z" fill="white"/>
<path d="M212.344 130.135H184.871V168.819H212.344V130.135Z" fill="#C7C7C7"/>
<path d="M208.426 141.489H188.783V143.186H208.426V141.489Z" fill="#A6A6A6"/>
<path d="M206.413 144.71H190.796V146.407H206.413V144.71Z" fill="#A6A6A6"/>
<path d="M206.413 135.565H190.796V137.262H206.413V135.565Z" fill="#EBEBEB"/>
<path d="M209.277 157.214C209.277 160.501 204.496 163.168 198.602 163.168C192.707 163.168 187.926 160.501 187.926 157.214C187.926 153.927 192.707 151.26 198.602 151.26C204.496 151.26 209.277 153.927 209.277 157.214Z" fill="white"/>
<path d="M242.693 130.135H215.22V168.819H242.693V130.135Z" fill="#C7C7C7"/>
<path d="M238.775 141.489H219.132V143.186H238.775V141.489Z" fill="#A6A6A6"/>
<path d="M236.762 144.71H221.144V146.407H236.762V144.71Z" fill="#A6A6A6"/>
<path d="M236.762 135.565H221.144V137.262H236.762V135.565Z" fill="#EBEBEB"/>
<path d="M239.632 157.214C239.632 160.501 234.851 163.168 228.956 163.168C223.062 163.168 218.281 160.501 218.281 157.214C218.281 153.927 223.062 151.26 228.956 151.26C234.851 151.26 239.632 153.927 239.632 157.214Z" fill="white"/>
<path d="M116.708 213.201H136.089V188.307H116.708V213.201Z" fill="#EBEBEB"/>
<path d="M119.429 200.632H133.659V195.327H119.429V200.632Z" fill="white"/>
<path d="M119.429 211.219H133.659V203.157H119.429V211.219Z" fill="white"/>
<path d="M115.577 192.189H137.22V188.307H115.577V192.189Z" fill="#C7C7C7"/>
<path d="M93.9927 213.201H113.374V188.307H93.9927V213.201Z" fill="#EBEBEB"/>
<path d="M96.7136 200.632H110.944V195.327H96.7136V200.632Z" fill="white"/>
<path d="M96.7136 211.219H110.944V203.157H96.7136V211.219Z" fill="white"/>
<path d="M92.8614 192.189H114.505V188.307H92.8614V192.189Z" fill="#C7C7C7"/>
<path d="M139.423 213.201H158.804V188.307H139.423V213.201Z" fill="#EBEBEB"/>
<path d="M142.138 200.632H156.369V195.327H142.138V200.632Z" fill="white"/>
<path d="M142.138 211.219H156.369V203.157H142.138V211.219Z" fill="white"/>
<path d="M138.292 192.189H159.936V188.307H138.292V192.189Z" fill="#C7C7C7"/>
<path d="M71.2834 213.201H90.6643V188.307H71.2834V213.201Z" fill="#EBEBEB"/>
<path d="M73.9927 200.632H88.2231V195.327H73.9927V200.632Z" fill="white"/>
<path d="M73.9927 211.219H88.2231V203.157H73.9927V211.219Z" fill="white"/>
<path d="M70.1522 192.189H91.7957V188.307H70.1522V192.189Z" fill="#C7C7C7"/>
<path d="M247.367 224.354H67.05V229.17H247.367V224.354Z" fill="#001640"/>
<path d="M187.354 74.8381C187.354 74.8381 184.175 65.8711 185.497 61.5364C186.384 58.6248 190.76 56.6838 190.76 53.5995V50.2354H194.547C194.547 50.2354 201.109 63.9419 195.655 74.844H187.354V74.8381Z" fill="#EBEBEB"/>
<path d="M194.368 50.801H190.206C190.052 50.801 189.927 50.9263 189.927 51.0809V51.6584C189.927 51.813 190.052 51.9383 190.206 51.9383H194.368C194.523 51.9383 194.648 51.813 194.648 51.6584V51.0809C194.648 50.9263 194.523 50.801 194.368 50.801Z" fill="#EBEBEB"/>
<path d="M194.368 51.9383H190.206C190.052 51.9383 189.927 52.0636 189.927 52.2181V52.7957C189.927 52.9502 190.052 53.0755 190.206 53.0755H194.368C194.523 53.0755 194.648 52.9502 194.648 52.7957V52.2181C194.648 52.0636 194.523 51.9383 194.368 51.9383Z" fill="#EBEBEB"/>
<path d="M194.368 53.0756H190.206C190.052 53.0756 189.927 53.2009 189.927 53.3554V53.933C189.927 54.0875 190.052 54.2128 190.206 54.2128H194.368C194.523 54.2128 194.648 54.0875 194.648 53.933V53.3554C194.648 53.2009 194.523 53.0756 194.368 53.0756Z" fill="#EBEBEB"/>
<path d="M188.081 45.3232C188.081 45.3232 188.73 46.1568 188.646 47.0202C188.563 47.8835 188.164 48.6933 188.295 48.7469C188.426 48.7945 189.575 47.9907 189.748 46.9249C189.921 45.865 189.641 45.3173 189.641 45.3173H188.081V45.3232Z" fill="#EBEBEB"/>
<path d="M194.91 49.6221V47.294C194.91 46.9427 195.363 46.2163 196.172 46.2163C197.572 46.2163 199.269 47.8775 199.352 47.3119C199.435 46.7462 198.477 42.5366 195.178 42.5366H187.366V45.3172H188.956C189.307 45.3172 190.462 45.5316 190.462 47.2285V49.6161H194.91V49.6221Z" fill="white"/>
<path d="M195.089 48.1871H190.29C190.129 48.1871 189.998 48.3178 189.998 48.4789V50.414C189.998 50.5751 190.129 50.7058 190.29 50.7058H195.089C195.25 50.7058 195.381 50.5751 195.381 50.414V48.4789C195.381 48.3178 195.25 48.1871 195.089 48.1871Z" fill="#C7C7C7"/>
<path d="M187.366 42.1556V45.7102L185.914 45.3946V42.4711L187.366 42.1556Z" fill="#C7C7C7"/>
<path d="M192.689 56.0765C195.071 56.0765 196.47 59.4644 196.47 64.0551C196.47 67.0084 195.982 69.4912 195.66 70.8786C195.494 71.5871 194.863 72.0873 194.136 72.0873H189.075C188.367 72.0873 187.747 71.6169 187.563 70.9262C186.932 68.5564 185.741 63.2036 187.188 61.1673C189.135 58.4343 190.79 57.7675 191.499 56.0765H192.695H192.689Z" fill="white"/>
<path d="M217.536 74.8381C217.536 74.8381 214.357 65.8711 215.678 61.5364C216.566 58.6248 220.942 56.6838 220.942 53.5995V50.2354H224.729C224.729 50.2354 231.29 63.9419 225.836 74.844H217.536V74.8381Z" fill="#EBEBEB"/>
<path d="M224.556 50.801H220.394C220.24 50.801 220.114 50.9263 220.114 51.0809V51.6584C220.114 51.813 220.24 51.9383 220.394 51.9383H224.556C224.711 51.9383 224.836 51.813 224.836 51.6584V51.0809C224.836 50.9263 224.711 50.801 224.556 50.801Z" fill="#EBEBEB"/>
<path d="M224.556 51.9383H220.394C220.24 51.9383 220.114 52.0636 220.114 52.2181V52.7957C220.114 52.9502 220.24 53.0755 220.394 53.0755H224.556C224.711 53.0755 224.836 52.9502 224.836 52.7957V52.2181C224.836 52.0636 224.711 51.9383 224.556 51.9383Z" fill="#EBEBEB"/>
<path d="M224.556 53.0756H220.394C220.24 53.0756 220.114 53.2009 220.114 53.3554V53.933C220.114 54.0875 220.24 54.2128 220.394 54.2128H224.556C224.711 54.2128 224.836 54.0875 224.836 53.933V53.3554C224.836 53.2009 224.711 53.0756 224.556 53.0756Z" fill="#EBEBEB"/>
<path d="M218.268 45.3232C218.268 45.3232 218.917 46.1568 218.834 47.0202C218.751 47.8835 218.352 48.6933 218.483 48.7469C218.614 48.7945 219.763 47.9907 219.935 46.9249C220.108 45.865 219.828 45.3173 219.828 45.3173H218.268V45.3232Z" fill="#EBEBEB"/>
<path d="M225.098 49.6221V47.294C225.098 46.9427 225.55 46.2163 226.36 46.2163C227.759 46.2163 229.456 47.8775 229.54 47.3119C229.623 46.7462 228.664 42.5366 225.366 42.5366H217.554V45.3172H219.144C219.495 45.3172 220.65 45.5316 220.65 47.2285V49.6161H225.098V49.6221Z" fill="white"/>
<path d="M225.276 48.1871H220.477C220.316 48.1871 220.186 48.3178 220.186 48.4789V50.414C220.186 50.5751 220.316 50.7058 220.477 50.7058H225.276C225.438 50.7058 225.568 50.5751 225.568 50.414V48.4789C225.568 48.3178 225.438 48.1871 225.276 48.1871Z" fill="#C7C7C7"/>
<path d="M217.554 42.1556V45.7102L216.101 45.3946V42.4711L217.554 42.1556Z" fill="#C7C7C7"/>
<path d="M222.877 56.0765C225.259 56.0765 226.658 59.4644 226.658 64.0551C226.658 67.0084 226.17 69.4912 225.848 70.8786C225.681 71.5871 225.05 72.0873 224.324 72.0873H219.263C218.554 72.0873 217.935 71.6169 217.75 70.9262C217.119 68.5564 215.928 63.2036 217.375 61.1673C219.322 58.4343 220.977 57.7675 221.686 56.0765H222.883H222.877Z" fill="white"/>
<path d="M232.63 74.8381C232.63 74.8381 229.45 65.8711 230.772 61.5364C231.659 58.6248 236.036 56.6838 236.036 53.5995V50.2354H239.823C239.823 50.2354 246.384 63.9419 240.93 74.844H232.63V74.8381Z" fill="#EBEBEB"/>
<path d="M239.65 50.801H235.488C235.334 50.801 235.208 50.9263 235.208 51.0809V51.6584C235.208 51.813 235.334 51.9383 235.488 51.9383H239.65C239.805 51.9383 239.93 51.813 239.93 51.6584V51.0809C239.93 50.9263 239.805 50.801 239.65 50.801Z" fill="#EBEBEB"/>
<path d="M239.65 51.9383H235.488C235.334 51.9383 235.208 52.0636 235.208 52.2181V52.7957C235.208 52.9502 235.334 53.0755 235.488 53.0755H239.65C239.805 53.0755 239.93 52.9502 239.93 52.7957V52.2181C239.93 52.0636 239.805 51.9383 239.65 51.9383Z" fill="#EBEBEB"/>
<path d="M239.65 53.0756H235.488C235.334 53.0756 235.208 53.2009 235.208 53.3554V53.933C235.208 54.0875 235.334 54.2128 235.488 54.2128H239.65C239.805 54.2128 239.93 54.0875 239.93 53.933V53.3554C239.93 53.2009 239.805 53.0756 239.65 53.0756Z" fill="#EBEBEB"/>
<path d="M233.362 45.3232C233.362 45.3232 234.011 46.1568 233.928 47.0202C233.845 47.8835 233.446 48.6933 233.577 48.7469C233.708 48.7945 234.857 47.9907 235.029 46.9249C235.202 45.865 234.922 45.3173 234.922 45.3173H233.362V45.3232Z" fill="#EBEBEB"/>
<path d="M240.192 49.6221V47.294C240.192 46.9427 240.644 46.2163 241.454 46.2163C242.853 46.2163 244.55 47.8775 244.634 47.3119C244.717 46.7462 243.758 42.5366 240.46 42.5366H232.648V45.3172H234.238C234.589 45.3172 235.744 45.5316 235.744 47.2285V49.6161H240.192V49.6221Z" fill="white"/>
<path d="M240.37 48.1871H235.571C235.41 48.1871 235.28 48.3178 235.28 48.4789V50.414C235.28 50.5751 235.41 50.7058 235.571 50.7058H240.37C240.532 50.7058 240.662 50.5751 240.662 50.414V48.4789C240.662 48.3178 240.532 48.1871 240.37 48.1871Z" fill="#C7C7C7"/>
<path d="M232.648 42.1556V45.7102L231.189 45.3946V42.4711L232.648 42.1556Z" fill="#C7C7C7"/>
<path d="M237.971 56.0765C240.353 56.0765 241.752 59.4644 241.752 64.0551C241.752 67.0084 241.264 69.4912 240.942 70.8786C240.775 71.5871 240.144 72.0873 239.418 72.0873H234.357C233.648 72.0873 233.029 71.6169 232.844 70.9262C232.213 68.5564 231.022 63.2036 232.469 61.1673C234.416 58.4343 236.071 57.7675 236.78 56.0765H237.977H237.971Z" fill="white"/>
<path d="M118.202 107.485H107.443C105.944 107.485 104.728 108.7 104.728 110.2V119.149C104.728 120.649 105.944 121.864 107.443 121.864H118.202C119.702 121.864 120.917 120.649 120.917 119.149V110.2C120.917 108.7 119.702 107.485 118.202 107.485Z" fill="white"/>
<path d="M119.084 105.681H106.562V107.479H119.084V105.681Z" fill="#A6A6A6"/>
<path d="M121.025 110.968H104.728V118.375H121.025V110.968Z" fill="#EBEBEB"/>
<path d="M117.762 114.672C117.762 116.392 115.553 117.786 112.82 117.786C110.087 117.786 107.878 116.392 107.878 114.672C107.878 112.951 110.087 111.558 112.82 111.558C115.553 111.558 117.762 112.951 117.762 114.672Z" fill="white"/>
<path d="M135.964 107.485H125.205C123.705 107.485 122.49 108.7 122.49 110.2V119.149C122.49 120.649 123.705 121.864 125.205 121.864H135.964C137.463 121.864 138.679 120.649 138.679 119.149V110.2C138.679 108.7 137.463 107.485 135.964 107.485Z" fill="white"/>
<path d="M136.845 105.681H124.323V107.479H136.845V105.681Z" fill="#A6A6A6"/>
<path d="M138.786 110.968H122.49V118.375H138.786V110.968Z" fill="#EBEBEB"/>
<path d="M135.523 114.672C135.523 116.392 133.314 117.786 130.581 117.786C127.848 117.786 125.639 116.392 125.639 114.672C125.639 112.951 127.848 111.558 130.581 111.558C133.314 111.558 135.523 112.951 135.523 114.672Z" fill="white"/>
<path d="M153.731 107.485H142.972C141.472 107.485 140.257 108.7 140.257 110.2V119.149C140.257 120.649 141.472 121.864 142.972 121.864H153.731C155.231 121.864 156.446 120.649 156.446 119.149V110.2C156.446 108.7 155.231 107.485 153.731 107.485Z" fill="white"/>
<path d="M154.612 105.681H142.091V107.479H154.612V105.681Z" fill="#A6A6A6"/>
<path d="M156.553 110.968H140.257V118.375H156.553V110.968Z" fill="#EBEBEB"/>
<path d="M153.29 114.672C153.29 116.392 151.081 117.786 148.348 117.786C145.615 117.786 143.406 116.392 143.406 114.672C143.406 112.951 145.615 111.558 148.348 111.558C151.081 111.558 153.29 112.951 153.29 114.672Z" fill="white"/>
<path d="M118.202 90.9203H107.443C105.944 90.9203 104.728 92.1359 104.728 93.6355V102.585C104.728 104.084 105.944 105.3 107.443 105.3H118.202C119.702 105.3 120.917 104.084 120.917 102.585V93.6355C120.917 92.1359 119.702 90.9203 118.202 90.9203Z" fill="white"/>
<path d="M119.084 89.1222H106.562V90.9204H119.084V89.1222Z" fill="#A6A6A6"/>
<path d="M121.025 94.4095H104.728V101.816H121.025V94.4095Z" fill="#EBEBEB"/>
<path d="M117.762 98.113C117.762 99.8338 115.553 101.227 112.82 101.227C110.087 101.227 107.878 99.8338 107.878 98.113C107.878 96.3922 110.087 94.999 112.82 94.999C115.553 94.999 117.762 96.3922 117.762 98.113Z" fill="white"/>
<path d="M153.731 90.9203H142.972C141.472 90.9203 140.257 92.1359 140.257 93.6355V102.585C140.257 104.084 141.472 105.3 142.972 105.3H153.731C155.231 105.3 156.446 104.084 156.446 102.585V93.6355C156.446 92.1359 155.231 90.9203 153.731 90.9203Z" fill="white"/>
<path d="M154.612 89.1222H142.091V90.9204H154.612V89.1222Z" fill="#A6A6A6"/>
<path d="M156.553 94.4095H140.257V101.816H156.553V94.4095Z" fill="#EBEBEB"/>
<path d="M153.29 98.113C153.29 99.8338 151.081 101.227 148.348 101.227C145.615 101.227 143.406 99.8338 143.406 98.113C143.406 96.3922 145.615 94.999 148.348 94.999C151.081 94.999 153.29 96.3922 153.29 98.113Z" fill="white"/>
<path d="M233.749 178.131H227.676V185.443H233.749V178.131Z" fill="#EBEBEB"/>
<path d="M244.092 210.004L239.525 188.283C238.912 185.407 236.595 183.252 233.755 182.799C233.392 182.74 233.017 182.71 232.642 182.71H228.688C228.337 182.71 227.998 182.775 227.676 182.901C226.711 183.311 226.039 184.264 226.039 185.366V210.546C226.039 212.011 227.218 213.201 228.682 213.201H241.484C243.175 213.201 244.437 211.647 244.086 209.998L244.092 210.004ZM236.161 190.105C236.298 190.069 236.435 190.057 236.56 190.057C237.423 190.057 238.185 190.647 238.376 191.522L240.293 200.209C240.495 201.21 239.87 202.198 238.864 202.424C237.864 202.627 236.875 201.996 236.649 200.995L234.744 192.32C234.529 191.32 235.166 190.331 236.161 190.105Z" fill="#C7C7C7"/>
<path d="M229.54 186.3H231.886C232.862 186.3 233.588 187.241 233.291 188.17C232.963 189.2 232.761 190.677 233.112 192.665C233.898 197.155 234.994 202.728 235.357 203.46C235.66 204.068 237.095 205.217 239.316 204.609C240.12 204.389 240.96 204.848 241.156 205.663L241.65 207.718C241.871 208.64 241.174 209.528 240.227 209.528H229.546C228.736 209.528 228.081 208.873 228.081 208.063V187.771C228.081 186.961 228.736 186.306 229.546 186.306L229.54 186.3Z" fill="white"/>
<path d="M192.796 178.131H186.723V185.443H192.796V178.131Z" fill="#EBEBEB"/>
<path d="M203.133 210.004L198.566 188.283C197.953 185.407 195.637 183.252 192.796 182.799C192.433 182.74 192.058 182.71 191.683 182.71H187.729C187.378 182.71 187.039 182.775 186.717 182.901C185.753 183.311 185.08 184.264 185.08 185.366V210.546C185.08 212.011 186.259 213.201 187.723 213.201H200.525C202.216 213.201 203.478 211.647 203.127 209.998L203.133 210.004ZM195.202 190.105C195.339 190.069 195.476 190.057 195.601 190.057C196.464 190.057 197.226 190.647 197.417 191.522L199.334 200.209C199.537 201.21 198.911 202.198 197.905 202.424C196.905 202.627 195.916 201.996 195.69 200.995L193.785 192.32C193.57 191.32 194.208 190.331 195.202 190.105Z" fill="#C7C7C7"/>
<path d="M188.581 186.3H190.921C191.897 186.3 192.624 187.241 192.326 188.17C191.999 189.2 191.796 190.677 192.147 192.665C192.933 197.155 194.029 202.728 194.392 203.46C194.696 204.068 196.131 205.217 198.352 204.609C199.156 204.389 199.995 204.848 200.192 205.663L200.686 207.718C200.906 208.64 200.209 209.528 199.263 209.528H188.581C187.771 209.528 187.116 208.873 187.116 208.063V187.771C187.116 186.961 187.771 186.306 188.581 186.306V186.3Z" fill="white"/>
<path d="M172.314 178.131H166.241V185.443H172.314V178.131Z" fill="#EBEBEB"/>
<path d="M182.656 210.004L178.089 188.283C177.476 185.407 175.16 183.252 172.32 182.799C171.957 182.74 171.582 182.71 171.206 182.71H167.253C166.902 182.71 166.562 182.775 166.241 182.901C165.276 183.311 164.603 184.264 164.603 185.366V210.546C164.603 212.011 165.782 213.201 167.247 213.201H180.048C181.739 213.201 183.002 211.647 182.65 209.998L182.656 210.004ZM174.725 190.105C174.862 190.069 174.999 190.057 175.124 190.057C175.988 190.057 176.75 190.647 176.94 191.522L178.858 200.209C179.06 201.21 178.435 202.198 177.429 202.424C176.428 202.627 175.44 201.996 175.214 200.995L173.308 192.32C173.094 191.32 173.731 190.331 174.725 190.105Z" fill="#C7C7C7"/>
<path d="M168.104 186.3H170.444C171.421 186.3 172.147 187.241 171.85 188.17C171.522 189.2 171.32 190.677 171.671 192.665C172.457 197.155 173.552 202.728 173.916 203.46C174.219 204.068 175.654 205.217 177.875 204.609C178.679 204.389 179.519 204.848 179.715 205.663L180.209 207.718C180.43 208.64 179.733 209.528 178.786 209.528H168.104C167.295 209.528 166.64 208.873 166.64 208.063V187.771C166.64 186.961 167.295 186.306 168.104 186.306V186.3Z" fill="white"/>
<path d="M213.273 178.131H207.2V185.443H213.273V178.131Z" fill="#3F80FF"/>
<path d="M223.615 210.004L219.048 188.283C218.435 185.407 216.119 183.252 213.279 182.799C212.916 182.74 212.541 182.71 212.165 182.71H208.212C207.861 182.71 207.521 182.775 207.2 182.901C206.235 183.311 205.562 184.264 205.562 185.366V210.546C205.562 212.011 206.741 213.201 208.206 213.201H221.007C222.698 213.201 223.961 211.647 223.609 209.998L223.615 210.004ZM215.684 190.105C215.821 190.069 215.958 190.057 216.083 190.057C216.947 190.057 217.709 190.647 217.899 191.522L219.817 200.209C220.019 201.21 219.394 202.198 218.388 202.424C217.387 202.627 216.399 201.996 216.173 200.995L214.267 192.32C214.053 191.32 214.69 190.331 215.684 190.105Z" fill="#37474F"/>
<path d="M209.057 186.3H211.403C212.374 186.3 213.106 187.241 212.809 188.17C212.481 189.2 212.279 190.677 212.63 192.665C213.416 197.155 214.511 202.728 214.875 203.46C215.178 204.068 216.613 205.217 218.834 204.609C219.638 204.389 220.478 204.848 220.674 205.663L221.168 207.718C221.389 208.64 220.692 209.528 219.745 209.528H209.063C208.254 209.528 207.599 208.873 207.599 208.063V187.771C207.599 186.961 208.254 186.306 209.063 186.306L209.057 186.3Z" fill="white"/>
<path d="M239.304 199.981C241.675 186.354 232.551 173.386 218.924 171.015C205.298 168.645 192.33 177.769 189.959 191.395C187.588 205.022 196.713 217.99 210.339 220.361C223.965 222.731 236.933 213.607 239.304 199.981Z" stroke="#001640" stroke-width="2" stroke-miterlimit="10"/>
<path d="M230.958 199.949C233.326 190.922 227.928 181.684 218.901 179.316C209.874 176.948 200.636 182.346 198.268 191.373C195.9 200.4 201.298 209.637 210.325 212.006C219.352 214.374 228.589 208.976 230.958 199.949Z" stroke="#001640" stroke-miterlimit="10"/>
<path d="M214.619 170.623V175.529" stroke="#001640" stroke-width="2" stroke-miterlimit="10"/>
<path d="M189.575 195.672H194.481" stroke="#001640" stroke-width="2" stroke-miterlimit="10"/>
<path d="M214.619 220.716V215.809" stroke="#001640" stroke-width="2" stroke-miterlimit="10"/>
<path d="M239.662 195.672H234.756" stroke="#001640" stroke-width="2" stroke-miterlimit="10"/>
<path d="M217.072 195.672H212.166" stroke="#001640" stroke-miterlimit="10"/>
<path d="M214.619 198.125V193.219" stroke="#001640" stroke-miterlimit="10"/>
<path d="M135.964 90.9203H125.204C123.705 90.9203 122.489 92.1359 122.489 93.6355V102.585C122.489 104.084 123.705 105.3 125.204 105.3H135.964C137.463 105.3 138.679 104.084 138.679 102.585V93.6355C138.679 92.1359 137.463 90.9203 135.964 90.9203Z" fill="#3F80FF"/>
<path opacity="0.7" d="M135.964 90.9203H125.204C123.705 90.9203 122.489 92.1359 122.489 93.6355V102.585C122.489 104.084 123.705 105.3 125.204 105.3H135.964C137.463 105.3 138.679 104.084 138.679 102.585V93.6355C138.679 92.1359 137.463 90.9203 135.964 90.9203Z" fill="white"/>
<path d="M136.845 89.1222H124.323V90.9204H136.845V89.1222Z" fill="#37474F"/>
<path d="M138.786 94.4095H122.489V101.816H138.786V94.4095Z" fill="#3F80FF"/>
<path d="M135.523 98.113C135.523 99.8338 133.314 101.227 130.581 101.227C127.848 101.227 125.639 99.8338 125.639 98.113C125.639 96.3922 127.848 94.999 130.581 94.999C133.314 94.999 135.523 96.3922 135.523 98.113Z" fill="white"/>
<path d="M130.64 122.257C144.471 122.257 155.684 111.045 155.684 97.2139C155.684 83.3829 144.471 72.1706 130.64 72.1706C116.809 72.1706 105.597 83.3829 105.597 97.2139C105.597 111.045 116.809 122.257 130.64 122.257Z" stroke="#001640" stroke-width="2" stroke-miterlimit="10"/>
<path d="M130.641 114.112C139.973 114.112 147.539 106.546 147.539 97.2139C147.539 87.8814 139.973 80.3159 130.641 80.3159C121.308 80.3159 113.743 87.8814 113.743 97.2139C113.743 106.546 121.308 114.112 130.641 114.112Z" stroke="#001640" stroke-miterlimit="10"/>
<path d="M130.641 72.1647V77.0709" stroke="#001640" stroke-width="2" stroke-miterlimit="10"/>
<path d="M105.591 97.2139H110.498" stroke="#001640" stroke-width="2" stroke-miterlimit="10"/>
<path d="M130.641 122.257V117.351" stroke="#001640" stroke-width="2" stroke-miterlimit="10"/>
<path d="M155.684 97.2139H150.778" stroke="#001640" stroke-width="2" stroke-miterlimit="10"/>
<path d="M133.094 97.2139H128.181" stroke="#001640" stroke-miterlimit="10"/>
<path d="M130.641 99.6671V94.7608" stroke="#001640" stroke-miterlimit="10"/>
<path d="M202.448 74.8381C202.448 74.8381 199.269 65.8711 200.59 61.5364C201.478 58.6248 205.854 56.6838 205.854 53.5995V50.2354H209.641C209.641 50.2354 216.202 63.9419 210.748 74.844H202.448V74.8381Z" fill="#3F80FF"/>
<path d="M209.462 50.801H205.3C205.146 50.801 205.02 50.9263 205.02 51.0809V51.6584C205.02 51.813 205.146 51.9383 205.3 51.9383H209.462C209.617 51.9383 209.742 51.813 209.742 51.6584V51.0809C209.742 50.9263 209.617 50.801 209.462 50.801Z" fill="#3F80FF"/>
<path d="M209.462 51.9383H205.3C205.146 51.9383 205.02 52.0636 205.02 52.2181V52.7957C205.02 52.9502 205.146 53.0755 205.3 53.0755H209.462C209.617 53.0755 209.742 52.9502 209.742 52.7957V52.2181C209.742 52.0636 209.617 51.9383 209.462 51.9383Z" fill="#3F80FF"/>
<path d="M209.462 53.0756H205.3C205.146 53.0756 205.02 53.2009 205.02 53.3554V53.933C205.02 54.0875 205.146 54.2128 205.3 54.2128H209.462C209.617 54.2128 209.742 54.0875 209.742 53.933V53.3554C209.742 53.2009 209.617 53.0756 209.462 53.0756Z" fill="#3F80FF"/>
<path d="M203.175 45.3232C203.175 45.3232 203.824 46.1568 203.74 47.0202C203.657 47.8835 203.258 48.6933 203.389 48.7469C203.52 48.7945 204.669 47.9907 204.842 46.9249C205.014 45.865 204.735 45.3173 204.735 45.3173H203.175V45.3232Z" fill="#3F80FF"/>
<path d="M210.004 49.6221V47.294C210.004 46.9427 210.456 46.2163 211.266 46.2163C212.665 46.2163 214.362 47.8775 214.446 47.3119C214.529 46.7462 213.57 42.5366 210.272 42.5366H202.46V45.3172H204.05C204.401 45.3172 205.556 45.5316 205.556 47.2285V49.6161H210.004V49.6221Z" fill="white"/>
<path d="M210.183 48.1871H205.384C205.222 48.1871 205.092 48.3178 205.092 48.4789V50.414C205.092 50.5751 205.222 50.7058 205.384 50.7058H210.183C210.344 50.7058 210.474 50.5751 210.474 50.414V48.4789C210.474 48.3178 210.344 48.1871 210.183 48.1871Z" fill="#001640"/>
<path d="M202.46 42.1556V45.7102L201.007 45.3946V42.4711L202.46 42.1556Z" fill="#001640"/>
<path d="M207.783 56.0765C210.165 56.0765 211.564 59.4644 211.564 64.0551C211.564 67.0084 211.076 69.4912 210.754 70.8786C210.588 71.5871 209.956 72.0873 209.23 72.0873H204.169C203.46 72.0873 202.841 71.6169 202.657 70.9262C202.025 68.5564 200.835 63.2036 202.281 61.1673C204.228 58.4343 205.884 57.7675 206.592 56.0765H207.789H207.783Z" fill="white"/>
<path d="M231.46 65.3487C235.242 52.0448 227.524 38.1939 214.22 34.4117C200.916 30.6295 187.065 38.3484 183.283 51.6522C179.501 64.9561 187.219 78.807 200.523 82.5892C213.827 86.3714 227.678 78.6525 231.46 65.3487Z" stroke="#001640" stroke-width="2" stroke-miterlimit="10"/>
<path d="M224.035 61.2277C225.544 52.0179 219.3 43.3292 210.09 41.8211C200.88 40.3129 192.192 46.5563 190.684 55.7662C189.175 64.976 195.419 73.6646 204.629 75.1728C213.839 76.681 222.527 70.4375 224.035 61.2277Z" stroke="#001640" stroke-miterlimit="10"/>
<path d="M207.36 33.4506V38.3568" stroke="#001640" stroke-width="2" stroke-miterlimit="10"/>
<path d="M182.311 58.4998H187.217" stroke="#001640" stroke-width="2" stroke-miterlimit="10"/>
<path d="M207.36 83.5431V78.6368" stroke="#001640" stroke-width="2" stroke-miterlimit="10"/>
<path d="M232.404 58.4998H227.497" stroke="#001640" stroke-width="2" stroke-miterlimit="10"/>
<path d="M209.813 58.4998H204.907" stroke="#001640" stroke-miterlimit="10"/>
<path d="M207.36 60.9529V56.0467" stroke="#001640" stroke-miterlimit="10"/>
<path d="M185.669 243.853H113.647C112.856 243.853 112.207 243.21 112.207 242.413V233.886C112.207 233.886 112.207 233.844 112.207 233.827C112.207 233.797 112.207 233.767 112.207 233.743C112.207 233.69 112.218 233.642 112.23 233.588L120.935 201.614L109.652 131.712L93.9034 126.383C93.1412 126.163 92.7066 125.359 92.9269 124.597C93.1531 123.835 93.945 123.4 94.7131 123.621L111.343 129.206C111.879 129.361 112.278 129.819 112.361 130.373L123.823 201.424C123.847 201.585 123.841 201.745 123.811 201.906L115.362 232.546L182.448 237.316C182.823 237.34 183.168 237.512 183.419 237.786L186.729 241.442C187.11 241.865 187.205 242.472 186.979 242.99C186.747 243.508 186.235 243.847 185.663 243.847L185.669 243.853ZM115.088 240.978H182.43L181.686 240.156L115.088 235.416V240.978Z" fill="#A6A6A6"/>
<path d="M106.538 125.615C100.894 123.722 95.249 121.834 89.6045 119.941C85.508 118.572 83.7515 125.038 87.8242 126.401C93.4687 128.295 99.1133 130.182 104.758 132.076C108.854 133.445 110.611 126.979 106.538 125.615Z" fill="#3F80FF"/>
<path d="M196.917 191.016H121.066C120.798 191.016 120.584 190.802 120.584 190.534C120.584 190.266 120.798 190.052 121.066 190.052H196.917C197.185 190.052 197.399 190.266 197.399 190.534C197.399 190.802 197.185 191.016 196.917 191.016Z" fill="#A6A6A6"/>
<path d="M198.846 185.181H120.179C119.911 185.181 119.697 184.967 119.697 184.699C119.697 184.431 119.911 184.216 120.179 184.216H198.846C199.114 184.216 199.328 184.431 199.328 184.699C199.328 184.967 199.114 185.181 198.846 185.181Z" fill="#A6A6A6"/>
<path d="M200.632 179.352H119.286C119.018 179.352 118.804 179.137 118.804 178.87C118.804 178.602 119.018 178.387 119.286 178.387H200.632C200.9 178.387 201.114 178.602 201.114 178.87C201.114 179.137 200.9 179.352 200.632 179.352Z" fill="#A6A6A6"/>
<path d="M202.561 173.517H118.387C118.119 173.517 117.905 173.302 117.905 173.034C117.905 172.767 118.119 172.552 118.387 172.552H202.561C202.823 172.552 203.044 172.767 203.044 173.034C203.044 173.302 202.829 173.517 202.561 173.517Z" fill="#A6A6A6"/>
<path d="M204.407 167.682H117.494C117.226 167.682 117.011 167.467 117.011 167.199C117.011 166.931 117.226 166.717 117.494 166.717H204.407C204.675 166.717 204.889 166.931 204.889 167.199C204.889 167.467 204.675 167.682 204.407 167.682Z" fill="#A6A6A6"/>
<path d="M206.384 161.847H116.601C116.333 161.847 116.118 161.632 116.118 161.364C116.118 161.096 116.333 160.882 116.601 160.882H206.384C206.652 160.882 206.866 161.096 206.866 161.364C206.866 161.632 206.652 161.847 206.384 161.847Z" fill="#A6A6A6"/>
<path d="M208.271 156.017H115.708C115.44 156.017 115.225 155.803 115.225 155.535C115.225 155.267 115.44 155.053 115.708 155.053H208.271C208.539 155.053 208.754 155.267 208.754 155.535C208.754 155.803 208.539 156.017 208.271 156.017Z" fill="#A6A6A6"/>
<path d="M128.95 198.334C128.7 198.334 128.491 198.143 128.473 197.893L124.8 149.843C124.782 149.581 124.978 149.349 125.24 149.331C125.478 149.307 125.735 149.509 125.758 149.771L129.432 197.822C129.45 198.084 129.253 198.316 128.991 198.34C128.98 198.34 128.968 198.34 128.956 198.34L128.95 198.334Z" fill="#A6A6A6"/>
<path d="M188.42 195.202C188.378 195.202 188.337 195.202 188.295 195.184C188.039 195.113 187.89 194.851 187.956 194.595L200.168 149.676C200.239 149.42 200.501 149.271 200.757 149.337C201.013 149.408 201.162 149.67 201.096 149.926L188.884 194.845C188.825 195.059 188.634 195.196 188.42 195.196V195.202Z" fill="#A6A6A6"/>
<path d="M136.613 197.977C136.351 197.977 136.142 197.768 136.13 197.506L134.945 149.813C134.939 149.545 135.148 149.331 135.41 149.319H135.422C135.684 149.319 135.892 149.527 135.904 149.789L137.089 197.482C137.095 197.75 136.887 197.965 136.625 197.977H136.613Z" fill="#A6A6A6"/>
<path d="M144.478 197.548H144.466C144.204 197.548 143.99 197.322 143.996 197.06L144.877 149.789C144.877 149.527 145.097 149.319 145.359 149.319H145.371C145.633 149.319 145.848 149.545 145.842 149.807L144.961 197.077C144.961 197.339 144.74 197.548 144.478 197.548Z" fill="#A6A6A6"/>
<path d="M180.049 195.577C180.019 195.577 179.983 195.577 179.953 195.565C179.691 195.511 179.525 195.255 179.578 194.999L188.861 149.706C188.914 149.444 189.17 149.277 189.426 149.331C189.688 149.384 189.855 149.64 189.801 149.896L180.519 195.19C180.471 195.416 180.275 195.571 180.049 195.571V195.577Z" fill="#A6A6A6"/>
<path d="M170.51 196.149C170.51 196.149 170.456 196.149 170.432 196.143C170.17 196.101 169.992 195.851 170.039 195.595L177.554 149.73C177.595 149.468 177.845 149.289 178.101 149.337C178.363 149.378 178.542 149.629 178.494 149.885L170.98 195.75C170.944 195.982 170.736 196.149 170.51 196.149Z" fill="#A6A6A6"/>
<path d="M152.528 197.095C152.528 197.095 152.504 197.095 152.493 197.095C152.231 197.077 152.028 196.845 152.052 196.583L155.553 149.771C155.571 149.509 155.803 149.307 156.065 149.331C156.327 149.349 156.53 149.581 156.506 149.843L153.005 196.655C152.987 196.905 152.772 197.101 152.528 197.101V197.095Z" fill="#A6A6A6"/>
<path d="M161.954 196.482C161.954 196.482 161.918 196.482 161.9 196.482C161.638 196.452 161.448 196.214 161.477 195.952L166.616 149.748C166.646 149.486 166.872 149.289 167.146 149.325C167.408 149.355 167.598 149.593 167.569 149.855L162.43 196.059C162.4 196.303 162.198 196.488 161.954 196.488V196.482Z" fill="#A6A6A6"/>
<path d="M212.04 151.242H114.951C114.16 151.242 113.51 150.599 113.51 149.801C113.51 149.003 114.154 148.36 114.951 148.36H212.04C212.832 148.36 213.481 149.003 213.481 149.801C213.481 150.599 212.838 151.242 212.04 151.242Z" fill="#A6A6A6"/>
<path d="M122.406 198.947C122.15 198.947 121.942 198.751 121.93 198.495C121.918 198.233 122.12 198.006 122.382 197.988L195.315 194.088L209.676 149.658C209.76 149.408 210.028 149.265 210.278 149.349C210.528 149.432 210.671 149.7 210.587 149.95L196.125 194.69C196.065 194.88 195.893 195.011 195.696 195.023L122.436 198.941C122.436 198.941 122.418 198.941 122.412 198.941L122.406 198.947Z" fill="#A6A6A6"/>
<path d="M122.68 250.927C125.807 250.927 128.342 248.392 128.342 245.265C128.342 242.137 125.807 239.602 122.68 239.602C119.553 239.602 117.018 242.137 117.018 245.265C117.018 248.392 119.553 250.927 122.68 250.927Z" fill="#001640"/>
<path d="M125.252 245.265C125.252 246.688 124.103 247.837 122.68 247.837C121.257 247.837 120.108 246.688 120.108 245.265C120.108 243.842 121.257 242.692 122.68 242.692C124.103 242.692 125.252 243.842 125.252 245.265Z" fill="#A6A6A6"/>
<path d="M178.977 245.265C178.977 248.391 176.44 250.927 173.314 250.927C170.188 250.927 167.652 248.391 167.652 245.265C167.652 242.139 170.188 239.602 173.314 239.602C176.44 239.602 178.977 242.139 178.977 245.265Z" fill="#001640"/>
<path d="M175.887 245.265C175.887 246.688 174.737 247.837 173.314 247.837C171.891 247.837 170.742 246.688 170.742 245.265C170.742 243.842 171.891 242.692 173.314 242.692C174.737 242.692 175.887 243.842 175.887 245.265Z" fill="#A6A6A6"/>
<path d="M19.7372 210.873C19.7372 210.873 19.1001 236.071 19.1001 236.089C19.118 240.745 19.2132 244.83 19.4573 246.938C19.4573 246.95 19.4573 246.962 19.4573 246.973C19.5467 247.771 19.6657 248.277 19.8027 248.408C19.8146 248.42 19.8206 248.432 19.8325 248.438C21.2198 249.373 58.4453 250.338 59.7553 249.933C61.0711 249.534 60.0172 245.765 58.6061 244.574C57.183 243.383 43.1014 236.637 43.1014 236.637L43.5063 211.451L19.7372 210.867V210.873Z" fill="#D3766A"/>
<path d="M19.0594 231.088C19.0594 231.088 19.1011 236.071 19.1011 236.089C19.119 240.745 19.2142 244.83 19.4584 246.938C19.4584 246.95 19.4584 246.962 19.4584 246.973C19.5953 247.759 19.7203 248.277 19.8037 248.408C19.8156 248.42 19.8216 248.432 19.8335 248.438C21.2208 249.373 58.4463 250.338 59.7563 249.933C61.0721 249.534 60.0182 245.765 58.6071 244.574C57.184 243.383 43.1024 236.637 43.1024 236.637L43.1262 231.564L19.0535 231.082L19.0594 231.088Z" fill="white"/>
<path d="M45.3829 236.655C42.906 236.244 39.8932 236.691 38.0414 238.489C37.97 238.56 38.0712 238.661 38.1486 238.632C40.566 237.81 42.8345 237.268 45.377 236.964C45.5556 236.941 45.5556 236.679 45.377 236.655H45.3829Z" fill="#001640"/>
<path d="M47.1871 237.691C44.7102 237.28 41.6974 237.727 39.8456 239.525C39.7742 239.596 39.8754 239.697 39.9528 239.668C42.3702 238.846 44.6387 238.304 47.1812 238C47.3598 237.977 47.3598 237.715 47.1812 237.691H47.1871Z" fill="#001640"/>
<path d="M48.9911 238.727C46.5141 238.316 43.5013 238.763 41.6496 240.561C41.5781 240.632 41.6793 240.733 41.7567 240.704C44.1741 239.882 46.4427 239.34 48.9851 239.037C49.1637 239.013 49.1637 238.751 48.9851 238.727H48.9911Z" fill="#001640"/>
<path d="M59.7621 249.933C58.4522 250.338 21.2326 249.373 19.8393 248.432C19.3034 248.087 19.1308 242.651 19.1069 236.083C19.1069 236.012 19.1069 235.946 19.1069 235.875L43.1261 236.232L43.1082 236.637C43.1082 236.637 57.1899 243.377 58.6129 244.574C60.0241 245.759 61.078 249.534 59.768 249.933H59.7621Z" fill="#37474F"/>
<path d="M19.1011 235.875V236.089C19.1308 242.657 19.2976 248.087 19.8394 248.432C20.4705 248.855 28.5385 249.29 37.2554 249.599C47.6871 249.968 59.0477 250.153 59.7622 249.933C61.0721 249.528 60.0182 245.759 58.6071 244.574C57.184 243.383 43.1024 236.643 43.1024 236.643L43.1262 236.238L35.1178 236.119L19.1011 235.881V235.875Z" fill="#3F80FF"/>
<path d="M59.3751 248.48C53.1054 248.164 27.7882 247.48 21.5661 247.64C21.5184 247.64 21.5125 247.676 21.5661 247.682C27.7763 248.135 53.0994 248.611 59.3751 248.587C59.5061 248.587 59.5121 248.492 59.3751 248.486V248.48Z" fill="#001640"/>
<path opacity="0.1" d="M35.1118 236.119C35.7013 240.144 36.5944 246.068 37.2494 249.605C47.6811 249.974 59.0417 250.159 59.7562 249.939C61.0661 249.534 60.0122 245.765 58.6011 244.58C57.178 243.389 43.0964 236.649 43.0964 236.649L43.1202 236.244L35.1118 236.125V236.119Z" fill="black"/>
<path d="M16.9337 236.226L43.8704 236.482C43.8704 236.482 45.4006 192.63 45.5138 178C45.6448 161.299 44.698 111.188 44.698 111.188H24.561C24.561 111.188 19.1546 122.233 22.2448 134.66L23.0963 179.364L16.9277 236.226H16.9337Z" fill="#001640"/>
<path d="M18.9344 231.504C19.631 231.379 20.3753 231.385 21.0779 231.332C21.8758 231.278 22.6677 231.219 23.4655 231.183C24.9958 231.117 26.5319 231.094 28.0622 231.088C31.1524 231.076 34.2486 231.1 37.3388 231.195C39.0953 231.248 40.8577 231.32 42.6142 231.421C42.6856 231.421 42.6797 231.528 42.6142 231.534C39.5478 231.647 36.4814 231.695 33.415 231.755C30.3545 231.814 27.2822 231.874 24.2217 231.814C23.3405 231.796 22.4652 231.79 21.584 231.737C20.7147 231.689 19.8097 231.737 18.9463 231.612C18.8927 231.606 18.8749 231.516 18.9344 231.51V231.504Z" fill="#37474F"/>
<path d="M41.9295 207.301C42.245 200.049 42.4773 192.79 42.6737 185.538C43.0727 171.028 43.1679 156.506 42.9893 141.989C42.8881 133.844 42.6678 125.705 42.4237 117.559C42.4237 117.464 42.5606 117.47 42.5666 117.559C43.3406 132.135 43.6324 146.735 43.6502 161.329C43.6681 175.845 43.3644 190.367 42.644 204.866C42.2391 213.005 41.7449 221.15 40.9828 229.26C40.9768 229.331 40.8696 229.331 40.8696 229.26C41.1971 221.936 41.6079 214.618 41.9295 207.295V207.301Z" fill="#37474F"/>
<path d="M48.5505 214.874C48.5505 214.874 48.7589 239.227 48.753 239.245C48.7708 243.901 48.8661 247.986 49.1102 250.093C49.1102 250.105 49.1102 250.117 49.1102 250.129C49.1995 250.927 49.3186 251.433 49.4556 251.564C49.4675 251.576 49.4734 251.588 49.4853 251.594C50.8727 252.529 88.0982 253.493 89.4081 253.088C90.724 252.689 89.6701 248.92 88.259 247.73C86.8359 246.539 72.7543 239.793 72.7543 239.793L72.3196 215.452L48.5505 214.868V214.874Z" fill="#D3766A"/>
<path d="M48.7171 234.243C48.7171 234.243 48.7588 239.227 48.7588 239.245C48.7767 243.901 48.8719 247.986 49.1161 250.093C49.1161 250.105 49.1161 250.117 49.1161 250.129C49.253 250.915 49.3781 251.433 49.4614 251.564C49.4733 251.576 49.4793 251.588 49.4912 251.594C50.8785 252.529 88.1041 253.493 89.414 253.088C90.7298 252.689 89.676 248.92 88.2648 247.73C86.8418 246.539 72.7601 239.793 72.7601 239.793L72.7839 234.72L48.7112 234.237L48.7171 234.243Z" fill="white"/>
<path d="M75.0406 239.811C72.5637 239.4 69.5509 239.846 67.6991 241.644C67.6277 241.716 67.7289 241.817 67.8063 241.787C70.2237 240.966 72.4922 240.424 75.0347 240.12C75.2133 240.096 75.2133 239.834 75.0347 239.811H75.0406Z" fill="#001640"/>
<path d="M76.8448 240.853C74.3679 240.442 71.3551 240.888 69.5033 242.686C69.4319 242.758 69.5331 242.859 69.6105 242.829C72.0279 242.008 74.2964 241.466 76.8389 241.162C77.0175 241.138 77.0175 240.876 76.8389 240.853H76.8448Z" fill="#001640"/>
<path d="M78.6488 241.889C76.1718 241.478 73.159 241.924 71.3073 243.722C71.2358 243.794 71.3371 243.895 71.4145 243.865C73.8319 243.044 76.1004 242.502 78.6428 242.198C78.8215 242.174 78.8215 241.912 78.6428 241.889H78.6488Z" fill="#001640"/>
<path d="M89.42 253.094C88.1101 253.499 50.8905 252.535 49.4973 251.594C48.9614 251.249 48.7887 245.812 48.7649 239.245C48.7649 239.173 48.7649 239.108 48.7649 239.036L72.7841 239.394L72.7662 239.799C72.7662 239.799 86.8478 246.539 88.2709 247.736C89.682 248.92 90.7359 252.695 89.426 253.094H89.42Z" fill="#3F80FF"/>
<path d="M89.0331 251.636C82.7633 251.32 57.4461 250.635 51.224 250.796C51.1764 250.796 51.1704 250.832 51.224 250.838C57.4342 251.29 82.7574 251.767 89.0331 251.743C89.1641 251.743 89.17 251.647 89.0331 251.642V251.636Z" fill="#001640"/>
<path d="M36.2492 136.964C36.2492 136.964 47.3001 171.79 47.4966 178.191C47.6693 183.645 46.9667 239.644 46.9667 239.644L74.9394 239.811C74.9394 239.811 72.5756 182.704 72.141 177.018C71.3252 166.384 62.0069 137.19 55.3442 111.182H25.1863C25.1863 111.182 25.4483 124.806 31.6406 134.654C31.6406 134.654 34.445 135.952 36.2432 136.964H36.2492Z" fill="#001640"/>
<path d="M48.4552 234.488C51.6883 234.392 55.0345 234.297 58.2677 234.38C61.471 234.458 64.6863 234.511 67.8896 234.702C69.7056 234.809 71.5157 234.869 73.3317 235.047C73.3913 235.047 73.3913 235.142 73.3317 235.142C70.1046 235.333 66.8595 235.291 63.6264 235.262C60.4171 235.232 57.2078 235.196 54.0045 235.053C52.1884 234.97 50.3784 234.88 48.5623 234.749C48.3659 234.738 48.2646 234.487 48.4611 234.482L48.4552 234.488Z" fill="#37474F"/>
<path d="M54.5703 127.592C55.5647 130.92 56.4102 134.297 57.3033 137.655C58.2024 141.037 59.1015 144.425 59.9886 147.813C61.7153 154.362 63.4182 160.93 64.7103 167.58C66.0083 174.273 66.8002 181.019 66.9491 187.836C67.0979 194.767 66.9491 201.716 66.9074 208.646C66.8598 215.619 66.8002 222.591 66.6811 229.563C66.6633 230.433 66.6454 231.296 66.6156 232.165C66.6156 232.249 66.4906 232.243 66.4847 232.165C66.3001 225.229 66.3953 218.28 66.4192 211.344C66.443 204.407 66.5323 197.464 66.4727 190.528C66.4132 183.627 65.8833 176.786 64.6924 169.98C63.5254 163.305 61.8761 156.726 60.1732 150.17C59.2027 146.431 58.2202 142.692 57.2497 138.953C56.2732 135.19 55.2312 131.433 54.3679 127.64C54.3381 127.509 54.5287 127.461 54.5703 127.592Z" fill="#37474F"/>
<path d="M43.162 137.637C41.7687 137.613 40.3814 137.518 39.006 137.262C37.6187 137 36.3266 136.541 34.981 136.148C33.7008 135.773 32.3433 135.714 31.0333 135.505C29.7056 135.291 28.3778 134.946 27.1631 134.356C27.1036 134.326 27.056 134.416 27.1155 134.445C28.3182 135.059 29.5329 135.642 30.825 136.053C32.1527 136.47 33.5401 136.529 34.8857 136.857C36.273 137.196 37.6008 137.643 39.0298 137.809C40.4112 137.97 41.8045 137.964 43.1799 137.738C43.2335 137.732 43.2156 137.649 43.168 137.643L43.162 137.637Z" fill="#37474F"/>
<path d="M44.9305 165.342C44.6685 164.312 44.4185 163.275 44.1386 162.245C43.573 160.167 42.9954 158.083 42.3702 156.023C41.1198 151.927 39.9409 147.807 38.6191 143.734C37.8689 141.424 37.196 139.084 36.3208 136.815C36.297 136.762 36.2196 136.785 36.2315 136.839C36.6721 138.953 37.2973 141.019 37.857 143.103C38.4166 145.187 39.018 147.253 39.6134 149.325C40.8043 153.439 41.9713 157.559 43.2753 161.644C43.6385 162.787 44.0136 163.93 44.4125 165.062C44.8174 166.223 45.133 167.42 45.6153 168.545C45.6391 168.604 45.7284 168.581 45.7165 168.515C45.5319 167.437 45.1985 166.39 44.9305 165.336V165.342Z" fill="#37474F"/>
<path d="M47.2403 76.8268C51.831 79.5955 69.2768 88.9971 76.5885 87.7646C81.5126 86.937 93.677 75.243 95.9098 71.3251C96.8208 69.7235 85.1804 60.1432 83.5489 61.2507C81.7746 62.4534 73.7483 73.4627 72.3372 73.8914C70.9261 74.3201 57.7614 72.2242 50.146 71.9503C45.5851 71.7836 44.6562 75.2728 47.2403 76.8327V76.8268Z" fill="#D3766A"/>
<path d="M93.2365 74.6476C95.7849 72.4028 102.454 62.7571 103.341 60.5659C104.228 58.3748 106.336 51.8788 104.722 51.0273C103.114 50.1759 102.346 52.0276 102.346 52.0276C102.346 52.0276 102.888 48.8779 101.102 48.4373C99.6789 48.08 98.4583 50.6343 98.4583 50.6343C98.4583 50.6343 98.8691 47.1512 97.0412 46.9368C95.374 46.7403 94.7548 49.8246 94.7548 49.8246C94.7548 49.8246 94.8024 46.8773 93.165 46.9963C91.1942 47.1452 91.1049 52.242 89.9379 54.5939C89.6759 55.1298 79.8574 65.4364 79.8574 65.4364L93.2305 74.6476H93.2365Z" fill="#D3766A"/>
<path d="M94.6477 49.7115C94.1893 53.5281 93.8915 55.094 91.8612 58.1783C91.8195 58.2379 91.9028 58.3093 91.9505 58.2498C94.219 55.4096 94.7073 53.5757 94.8323 49.7055C94.8383 49.5209 94.6716 49.5328 94.6477 49.7115Z" fill="#001640"/>
<path d="M98.4227 50.6403C98.0059 54.5284 97.2199 56.2373 95.3265 59.6252C95.3027 59.6728 95.3801 59.7264 95.4099 59.6788C97.5415 56.5112 98.6489 54.5701 98.5537 50.6284C98.5537 50.4498 98.4465 50.4677 98.4227 50.6463V50.6403Z" fill="#001640"/>
<path d="M102.257 52.2003C101.578 55.9395 100.87 57.9163 98.6133 60.9708C98.5597 61.0422 98.6609 61.1256 98.7205 61.0601C101.328 58.1723 102.227 55.7073 102.37 52.236C102.382 51.9978 102.299 51.9681 102.257 52.2062V52.2003Z" fill="#001640"/>
<path d="M79.8633 65.4364C79.8633 65.4364 81.6793 61.3697 82.4414 59.3989C83.2036 57.4281 84.5968 51.5572 86.3414 51.0392C88.3004 50.4617 88.7529 55.9336 87.4191 59.4584C87.4191 59.4584 92.3254 63.2393 91.206 66.6928C90.9619 67.437 88.3123 70.4975 87.4191 70.6344L79.8692 65.4305L79.8633 65.4364Z" fill="#D3766A"/>
<path d="M87.4073 59.8693C89.3722 61.2745 91.3073 63.7991 91.1644 66.1986C91.1644 66.27 91.2597 66.2819 91.2716 66.2165C91.7777 63.6621 89.5627 60.7207 87.7348 59.5716C87.3835 59.3513 86.9012 59.5061 87.4073 59.8693Z" fill="#001640"/>
<path d="M79.8574 65.3412L93.4508 74.6297C93.4508 74.6297 93.7664 76.547 91.6705 78.5654C89.5747 80.5839 80.5957 88.1576 75.9813 88.2827C71.3668 88.4136 55.9335 82.6619 48.4074 77.8212C40.8813 72.9804 48.8361 71.5574 50.4914 71.6705C52.1467 71.7836 71.7478 73.4806 72.3373 73.2483C72.9268 73.0161 75.7193 68.6338 77.2078 67.0441C78.6964 65.4543 79.8574 65.3412 79.8574 65.3412Z" fill="#3F80FF"/>
<path d="M45.5255 73.4031C45.5255 73.4031 45.5076 73.4031 45.5017 73.3912C45.4302 73.4865 45.3766 73.5877 45.335 73.6889C45.3469 73.6949 45.3528 73.7008 45.3647 73.7068C45.7577 73.9092 46.1626 74.0819 46.6151 74.1712C46.2876 73.8497 45.9125 73.6115 45.5255 73.4031ZM77.0886 74.9333C76.6897 74.7369 76.2848 74.5582 75.8323 74.4689C76.1598 74.7964 76.5349 75.0286 76.9219 75.243C77.3208 75.4395 77.7257 75.6181 78.1782 75.7074C77.8508 75.3799 77.4756 75.1477 77.0886 74.9333ZM64.7813 84.6148C64.3883 84.4124 63.9835 84.2338 63.5309 84.1504C63.8584 84.4779 64.2335 84.7101 64.6206 84.9185C65.0135 85.1209 65.4184 85.2996 65.8709 85.3829C65.5435 85.0614 65.1683 84.8232 64.7813 84.6148ZM75.7549 86.1689C75.3619 85.9724 74.957 85.7938 74.5045 85.7045C74.832 86.0319 75.2071 86.2642 75.5941 86.4785C75.9871 86.675 76.392 86.8536 76.8445 86.9429C76.517 86.6154 76.1419 86.3832 75.7549 86.1689ZM71.0154 80.3159C70.8129 80.7089 70.6343 81.1138 70.5509 81.5663C70.8784 81.2388 71.1106 80.8637 71.319 80.4767C71.5215 80.0837 71.7001 79.6788 71.7834 79.2204C71.4619 79.5478 71.2297 79.9289 71.0154 80.3159ZM59.0415 73.3912C58.6187 73.5282 58.2079 73.6889 57.8268 73.945C58.2853 73.945 58.72 73.8437 59.1427 73.7187C59.5595 73.5817 59.9703 73.421 60.3574 73.165C59.8929 73.165 59.4642 73.2662 59.0415 73.3912ZM80.5182 68.0027C80.3813 67.5799 80.2205 67.1691 79.9585 66.788C79.9585 67.2525 80.0598 67.6812 80.1848 68.1039C80.3217 68.5266 80.4825 68.9375 80.7445 69.3186C80.7445 68.8541 80.6433 68.4254 80.5182 68.0027ZM80.9529 81.5127C80.8159 81.0959 80.6552 80.6851 80.3991 80.2981C80.3991 80.7625 80.5004 81.1912 80.6254 81.6199C80.7624 82.0367 80.9231 82.4475 81.1791 82.8286C81.1791 82.3701 81.0779 81.9414 80.9529 81.5127ZM51.8012 71.7776C51.6762 71.7717 51.563 71.7598 51.4559 71.7479C51.569 72.0813 51.7178 72.4147 51.9262 72.7184C51.9262 72.3909 51.8727 72.0813 51.8012 71.7776ZM69.4732 73.7961C69.0802 73.5937 68.6754 73.415 68.2169 73.3317C68.5444 73.6532 68.9254 73.8854 69.3125 74.0998C69.7054 74.2962 70.1103 74.4749 70.5628 74.5642C70.2354 74.2367 69.8602 74.0045 69.4732 73.7961ZM54.4449 76.8565C54.0519 76.6541 53.647 76.4755 53.1945 76.3921C53.522 76.7136 53.8971 76.9518 54.2841 77.1602C54.6771 77.3626 55.082 77.5413 55.5345 77.6246C55.207 77.3031 54.8319 77.0649 54.4449 76.8565ZM85.1387 75.6538C84.9422 76.0468 84.7636 76.4517 84.6743 76.9042C85.0017 76.5827 85.2339 76.2016 85.4483 75.8146C85.6448 75.4216 85.8234 75.0167 85.9127 74.5642C85.5852 74.8917 85.353 75.2668 85.1387 75.6538ZM89.0029 80.6077C89.1339 80.6077 89.259 80.6017 89.384 80.5839C89.5507 80.4469 89.7055 80.3159 89.8603 80.179C89.5626 80.2921 89.2828 80.4231 89.0029 80.6077ZM91.6049 74.1176C91.4858 73.7544 91.3489 73.3972 91.1345 73.0578C91.1107 72.9982 91.081 72.9566 91.0452 72.9089C91.0452 72.9387 91.0452 72.9685 91.0452 72.9982C91.0571 73.4269 91.1524 73.8318 91.2655 74.2248C91.4025 74.6416 91.5632 75.0524 91.8252 75.4394C91.8252 74.975 91.724 74.5463 91.599 74.1176H91.6049ZM62.489 78.7142C62.2865 79.1132 62.1079 79.5181 62.0245 79.9706C62.352 79.6431 62.5842 79.268 62.7926 78.875C62.9951 78.482 63.1737 78.0771 63.2571 77.6246C62.9355 77.9521 62.7033 78.3272 62.489 78.7142Z" fill="white"/>
<g opacity="0.1">
<path d="M79.8574 65.3412L93.4508 74.6297C93.4508 74.6297 93.7664 76.547 91.6705 78.5654C89.5747 80.5839 80.5957 88.1576 75.9813 88.2827C71.3668 88.4136 55.9335 82.6619 48.4074 77.8212C40.8813 72.9804 48.8361 71.5574 50.4914 71.6705C52.1467 71.7836 71.7478 73.4806 72.3373 73.2483C72.9268 73.0161 75.7193 68.6338 77.2078 67.0441C78.6964 65.4543 79.8574 65.3412 79.8574 65.3412Z" fill="black"/>
</g>
<path d="M19.4642 119.887C19.5535 119.995 59.5537 122.454 59.9407 122.067C60.4825 121.519 53.1886 79.5895 50.8129 73.2603C49.8007 70.563 43.4357 69.3662 40.5896 71.4204C33.4684 76.5589 26.5318 95.2788 24.8527 100.947C22.0661 110.277 19.1486 119.5 19.4582 119.893L19.4642 119.887Z" fill="#3F80FF"/>
<path d="M45.5257 73.4031C45.1327 73.2007 44.7278 73.0221 44.2753 72.9387C44.6028 73.2602 44.9779 73.4984 45.3649 73.7068C45.7579 73.9093 46.1628 74.0819 46.6153 74.1712C46.2878 73.8497 45.9127 73.6115 45.5257 73.4031ZM41.1434 96.1898C40.7505 95.9874 40.3456 95.8087 39.893 95.7254C40.2205 96.0529 40.5956 96.2851 40.9827 96.4935C41.3756 96.6959 41.7805 96.8745 42.233 96.9579C41.9056 96.6364 41.5304 96.4041 41.1434 96.1898ZM44.9958 113.225C44.6028 113.022 44.1979 112.85 43.7454 112.76C44.0729 113.088 44.448 113.32 44.835 113.528C45.228 113.731 45.6329 113.909 46.0854 113.993C45.7579 113.671 45.3828 113.439 44.9958 113.225ZM31.3726 87.1335C31.0511 86.9727 30.7117 86.812 30.3425 86.7226C30.3247 86.7584 30.3068 86.7881 30.2949 86.8239C30.5748 87.068 30.8903 87.2645 31.2178 87.4372C31.6108 87.6396 32.0157 87.8182 32.4682 87.9016C32.1407 87.5801 31.7656 87.3419 31.3726 87.1335ZM55.1953 103.168C54.8023 102.966 54.3974 102.793 53.939 102.704C54.2664 103.031 54.6475 103.263 55.0345 103.472C55.4275 103.674 55.8324 103.853 56.2849 103.936C55.9574 103.615 55.5823 103.382 55.1953 103.168ZM32.6825 111.623C32.2896 111.421 31.8847 111.242 31.4322 111.159C31.7596 111.48 32.1347 111.712 32.5218 111.927C32.9147 112.123 33.3196 112.302 33.7721 112.391C33.4447 112.064 33.0696 111.831 32.6825 111.623ZM52.0753 87.592C51.6823 87.3895 51.2774 87.2109 50.8249 87.1275C51.1524 87.455 51.5275 87.6872 51.9145 87.8956C52.3075 88.0981 52.7124 88.2767 53.1649 88.36C52.8374 88.0385 52.4623 87.8063 52.0753 87.592ZM48.3182 80.0718C48.1158 80.4648 47.9372 80.8697 47.8538 81.3222C48.1753 80.9947 48.4075 80.6196 48.6219 80.2326C48.8184 79.8396 48.997 79.4347 49.0863 78.9822C48.7588 79.3097 48.5266 79.6848 48.3182 80.0718ZM54.5463 115.362C54.3439 115.755 54.1652 116.16 54.0819 116.613C54.4034 116.285 54.6416 115.91 54.85 115.523C55.0524 115.13 55.2251 114.725 55.3144 114.267C54.9869 114.6 54.7547 114.975 54.5463 115.362ZM39.643 107.205C39.4465 107.598 39.2679 108.003 39.1785 108.461C39.506 108.134 39.7382 107.753 39.9526 107.366C40.1491 106.973 40.3277 106.568 40.417 106.115C40.0895 106.443 39.8573 106.818 39.643 107.205ZM47.3775 92.9805C47.175 93.3735 46.9964 93.7783 46.913 94.2309C47.2405 93.9034 47.4727 93.5283 47.6811 93.1413C47.8836 92.7483 48.0622 92.3434 48.1455 91.8909C47.824 92.2184 47.5859 92.5935 47.3775 92.9805ZM25.3172 115.023C25.1207 115.416 24.9421 115.821 24.8528 116.273C25.1803 115.946 25.4125 115.571 25.6268 115.184C25.8233 114.791 26.0019 114.386 26.0913 113.933C25.7638 114.261 25.5316 114.636 25.3172 115.023ZM27.038 98.2916C26.8355 98.6846 26.6569 99.0895 26.5735 99.542C26.8951 99.2145 27.1332 98.8394 27.3416 98.4524C27.5441 98.0535 27.7227 97.6486 27.8061 97.1961C27.4845 97.5235 27.2464 97.8986 27.038 98.2916ZM34.7665 80.4648C34.57 80.8578 34.3914 81.2627 34.3021 81.7152C34.6296 81.3877 34.8618 81.0126 35.0761 80.6256C35.2726 80.2326 35.4512 79.8277 35.5405 79.3752C35.2131 79.7027 34.9808 80.0778 34.7665 80.4648ZM40.5778 77.1721C40.161 77.3091 39.7442 77.4699 39.3631 77.7318C39.8276 77.7259 40.2563 77.6247 40.679 77.5056C41.1017 77.3686 41.5126 77.2079 41.8937 76.9459C41.4352 76.9459 41.0005 77.0471 40.5778 77.1721ZM49.8604 108.414C49.4436 108.551 49.0268 108.711 48.6457 108.973C49.1101 108.967 49.5388 108.866 49.9616 108.747C50.3843 108.61 50.7952 108.449 51.1762 108.187C50.7178 108.187 50.2831 108.289 49.8604 108.414ZM32.9326 120.352C32.6349 120.447 32.3312 120.56 32.0454 120.715L32.2955 120.733C32.4503 120.745 32.5992 120.751 32.754 120.763H32.7718C32.8671 120.733 32.9386 120.703 33.0338 120.679C33.4566 120.536 33.8674 120.382 34.2485 120.12C33.79 120.12 33.3554 120.227 32.9326 120.352ZM33.4566 103.728C33.0338 103.865 32.623 104.025 32.2419 104.282C32.7064 104.282 33.1351 104.18 33.5578 104.055C33.9805 103.918 34.3914 103.758 34.7725 103.496C34.308 103.502 33.8793 103.603 33.4566 103.728ZM38.9463 89.6997C38.5236 89.8367 38.1127 89.9974 37.7317 90.2594C38.1961 90.2535 38.6248 90.1523 39.0476 90.0272C39.4703 89.8962 39.8811 89.7355 40.2622 89.4735C39.7978 89.4735 39.3691 89.5747 38.9463 89.6997ZM55.0584 95.7849C54.9214 95.3681 54.7606 94.9513 54.5046 94.5703C54.5046 95.0347 54.6058 95.4634 54.7309 95.8861C54.8678 96.3089 55.0286 96.7197 55.2846 97.1008C55.2846 96.6423 55.1834 96.2077 55.0584 95.7849ZM39.4048 116.845C39.2679 116.428 39.1071 116.017 38.8451 115.636C38.8451 116.095 38.9523 116.523 39.0714 116.952C39.2083 117.369 39.3691 117.78 39.6311 118.161C39.6311 117.702 39.5298 117.274 39.4048 116.845ZM25.7757 106.86C25.6387 106.437 25.478 106.026 25.2219 105.645C25.2219 106.104 25.3232 106.538 25.4482 106.961C25.5851 107.384 25.7459 107.794 26.0019 108.176C26.0019 107.711 25.9007 107.282 25.7757 106.86ZM33.0696 95.9754C32.9326 95.5587 32.7718 95.1419 32.5099 94.7608C32.5099 95.2252 32.617 95.6539 32.7361 96.0767C32.8731 96.4994 33.0338 96.9102 33.2958 97.2913C33.2958 96.8328 33.1946 96.3982 33.0696 95.9754ZM48.5683 120.12C48.4254 119.703 48.2706 119.286 48.0086 118.905C48.0086 119.369 48.1098 119.798 48.2349 120.221C48.3718 120.644 48.5326 121.054 48.7946 121.436C48.7946 120.977 48.6874 120.542 48.5683 120.12ZM46.395 101.697C46.2521 101.281 46.0914 100.864 45.8353 100.483C45.8353 100.947 45.9365 101.376 46.0616 101.799C46.1985 102.221 46.3593 102.632 46.6213 103.013C46.6213 102.555 46.5141 102.12 46.395 101.697ZM43.9895 84.7161C43.8526 84.2933 43.6918 83.8825 43.4298 83.5014C43.4298 83.9659 43.537 84.3946 43.6561 84.8173C43.793 85.2401 43.9538 85.6509 44.2158 86.032C44.2158 85.5675 44.1146 85.1388 43.9895 84.7161Z" fill="white"/>
<path d="M50.9738 73.939C50.9738 73.939 50.944 73.9212 50.944 73.939C50.944 75.761 50.8309 79.9766 47.9967 79.5479C46.8595 79.3752 45.8532 78.5952 45.0256 77.839C44.1741 77.065 43.4239 76.1778 42.763 75.243C42.0247 74.201 41.2625 73.1114 40.7088 71.9622C40.685 71.9146 40.6076 71.9622 40.6373 72.0099C41.2447 73.159 41.7389 74.3499 42.4534 75.4395C43.144 76.4934 43.9419 77.4818 44.8946 78.3094C45.7817 79.0894 46.8535 79.8694 48.0682 79.9944C49.2173 80.1135 50.1045 79.4526 50.5094 78.4047C51.0393 77.0292 51.1167 75.3859 50.9797 73.939H50.9738Z" fill="#001640"/>
<path d="M48.2705 77.6246C46.2104 77.702 43.0427 73.6889 42.1913 70.9857C42.1318 70.8012 42.7391 69.0864 43.3762 66.9726C43.7573 65.6865 44.1502 64.2516 44.4182 62.9119L52.4146 66.6154C52.4146 66.6154 51.0333 69.259 50.5867 71.599C50.551 71.7955 50.5331 71.9801 50.5331 72.1587C50.5331 72.1825 50.5331 72.2182 50.5331 72.254C50.4974 73.3317 50.2711 77.5532 48.2765 77.6246H48.2705Z" fill="#D3766A"/>
<path d="M50.5272 72.1587C50.5272 72.1587 50.5272 72.2123 50.5272 72.248C50.2593 72.2361 49.9675 72.1944 49.6579 72.1289C44.8171 71.0572 44.8529 64.8827 44.9601 63.1619L46.9607 64.0848L52.4206 66.6153C52.4206 66.6153 51.0393 69.259 50.5927 71.599C50.557 71.7955 50.5391 71.9801 50.5391 72.1587H50.5272Z" fill="#001640"/>
<path d="M41.7388 55.6597C41.5066 58.8928 45.085 67.2585 47.6811 68.7172C51.4381 70.831 56.6064 69.9378 58.1485 65.6449C59.649 61.4829 54.7844 50.6582 51.98 49.4376C47.8478 47.6394 42.0841 50.8785 41.7388 55.6538V55.6597Z" fill="#D3766A"/>
<path opacity="0.2" d="M43.0009 61.2686C44.2334 64.5076 46.1328 67.8539 47.6869 68.7172C51.444 70.831 56.6062 69.9378 58.1543 65.6449C58.7021 64.1087 58.3984 61.6794 57.6363 59.1489C57.6482 59.2739 57.7435 61.2328 56.7253 61.6913C55.6714 62.1617 54.9569 61.3162 54.9569 61.3162L54.2007 61.346C54.2007 61.346 53.1647 62.7571 50.9081 63.1263C48.6514 63.4954 46.764 62.6976 45.8172 61.8402C44.8705 60.9828 44.7931 60.5719 44.7931 60.5719L42.989 61.2626L43.0009 61.2686Z" fill="#001640"/>
<path d="M51.1283 59.1846C51.1283 59.1846 51.0926 59.2323 51.1045 59.2501C51.3605 59.8098 51.563 60.4886 51.1283 60.8935C51.1164 60.9054 51.1283 60.9352 51.1462 60.9233C51.7356 60.572 51.4558 59.6729 51.1283 59.1846Z" fill="#001640"/>
<path d="M50.3782 58.8095C49.4434 59.1251 50.14 60.9768 51.0093 60.6851C51.8667 60.3993 51.1641 58.5475 50.3782 58.8095Z" fill="#001640"/>
<path d="M49.3243 57.7913C49.5505 57.6305 49.7351 57.4459 49.9435 57.2673C50.1817 57.0649 50.3901 56.9279 50.4734 56.6124C50.5211 56.4456 50.3901 56.2253 50.2293 56.1598C49.8602 56.0169 49.5089 56.1956 49.2112 56.4278C48.8896 56.6838 48.711 56.9577 48.6217 57.3566C48.5383 57.7437 49.0147 57.9997 49.3124 57.7913H49.3243Z" fill="#001640"/>
<path d="M55.463 56.6541C55.1891 56.7077 54.9271 56.7136 54.6533 56.7434C54.3436 56.7732 54.0995 56.8267 53.8137 56.6719C53.6589 56.5886 53.5875 56.3445 53.6589 56.1837C53.8137 55.8205 54.1829 55.6895 54.558 55.6359C54.9629 55.5823 55.2904 55.6359 55.6357 55.8503C55.9751 56.0527 55.8262 56.5767 55.469 56.6481L55.463 56.6541Z" fill="#001640"/>
<path d="M52.8431 64.6446C53.0336 64.728 53.2361 64.8589 53.4504 64.7994C53.6588 64.7399 53.8553 64.5612 54.0101 64.4243C54.028 64.4124 54.0518 64.4243 54.0459 64.4422C53.9804 64.716 53.7184 64.9721 53.4326 65.0257C53.1587 65.0792 52.9443 64.9006 52.7895 64.6863C52.7657 64.6565 52.8074 64.6267 52.8372 64.6386L52.8431 64.6446Z" fill="#001640"/>
<path d="M52.8015 62.6976C53.3077 63.0727 53.8852 63.1679 54.433 63.0727C54.6771 63.031 54.9212 62.9476 55.1475 62.8405C55.1951 62.8226 55.2368 62.7988 55.2785 62.775C55.3202 62.7511 55.3559 62.7333 55.3976 62.7095C55.4631 62.6737 55.475 62.6023 55.4631 62.5368C55.4631 62.5368 55.4452 62.4951 55.4333 62.4772L55.4154 62.4237C55.2606 61.9771 54.9629 61.3221 54.9629 61.3221C55.1535 61.34 56.118 61.3995 56.0168 61.1733C55.1832 59.3037 54.2544 57.2316 53.0278 55.5466C52.9921 55.487 52.8968 55.5406 52.9266 55.6002C53.659 57.4281 54.7069 59.1131 55.469 60.9351C55.1713 60.9351 54.6712 60.9113 54.439 61.0006C54.3854 61.0423 55.0344 62.2569 55.088 62.4653C55.088 62.4653 55.088 62.4713 55.088 62.4892C54.3794 62.8643 53.7364 62.8524 52.8313 62.6261C52.7777 62.6082 52.748 62.6678 52.7956 62.6976H52.8015Z" fill="#001640"/>
<path d="M54.8618 62.8524C54.8618 62.8524 54.6296 63.5014 54.1473 63.8527C53.9687 63.9837 53.7662 64.0789 53.5221 64.0849C53.0279 64.1028 52.8909 63.686 52.8612 63.2989C52.8374 62.9834 52.9029 62.6857 52.9029 62.6857C52.9029 62.6857 53.7603 63.1084 54.8558 62.8524H54.8618Z" fill="#001640"/>
<path d="M54.1533 63.8527C53.9747 63.9837 53.7722 64.0789 53.5281 64.0849C53.0339 64.1027 52.897 63.6859 52.8672 63.2989C53.3733 63.2037 53.9628 63.3882 54.1473 63.8527H54.1533Z" fill="#FF98B9"/>
<path d="M55.9209 56.9875C55.7482 57.0173 55.5934 57.0828 55.4386 57.1602C55.2838 57.2435 55.1409 57.3447 55.0099 57.4698C54.8848 57.6008 54.7717 57.7496 54.7003 57.9282C54.6288 58.1069 54.599 58.3034 54.611 58.4939L54.6348 58.8392L54.9087 58.6249C55.0932 58.476 55.3135 58.3331 55.5338 58.226C55.7601 58.1188 55.9983 58.0354 56.2781 58.0533C56.04 57.9104 55.7244 57.8985 55.4445 57.9699C55.1647 58.0414 54.9146 58.1664 54.6764 58.345L54.9742 58.476C54.9682 58.1962 55.0635 57.9282 55.2421 57.6841C55.4267 57.44 55.6589 57.2137 55.9209 56.9994V56.9875Z" fill="#001640"/>
<path d="M55.8263 58.6964C55.5584 58.7619 55.3202 58.8631 55.0344 58.8571C54.9689 58.8571 54.7069 58.8393 54.695 58.7976C54.6474 58.6845 54.6236 58.5415 54.6057 58.4046C54.5938 58.5415 54.57 58.6785 54.6176 58.8274C54.701 58.9226 54.8558 58.9822 55.0344 58.9762C55.3262 58.9583 55.6239 58.8274 55.8204 58.6904L55.8263 58.6964Z" fill="#001640"/>
<path d="M44.2277 62.4177C45.8532 61.8878 44.6445 57.8985 44.6445 57.8985C44.6445 57.8985 47.044 56.791 47.3774 53.022C47.3774 53.022 51.1405 54.2128 53.7305 53.0161C57.7853 51.1345 56.2313 45.6388 54.3498 44.9243C51.6763 43.9121 48.2586 47.2881 48.2586 47.2881C48.2586 47.2881 41.7329 47.175 40.9886 51.7597C40.9886 51.7597 38.3033 52.5814 38.8987 55.6299C39.4881 58.6785 43.019 62.8166 44.2277 62.4237V62.4177Z" fill="#001640"/>
<path d="M44.1741 58.5296C45.3232 57.9759 46.3295 57.1185 46.9011 55.9634C47.4965 54.7725 47.5977 53.153 46.9011 51.986C46.8654 51.9205 46.9725 51.8669 47.0023 51.9324C47.6692 53.2602 47.9609 54.7249 47.3774 56.148C46.8415 57.446 45.6329 58.482 44.2158 58.6487C44.1503 58.6547 44.1086 58.5654 44.1741 58.5296Z" fill="#001640"/>
<path d="M38.2257 53.9271C38.7854 52.6469 40.0239 52.1468 41.2981 51.861C41.3696 51.8431 41.3934 51.9622 41.3219 51.9741C40.0418 52.1527 38.9998 53.3138 38.6187 54.4987C38.2436 55.6597 38.714 56.8803 39.2558 57.9164C40.2978 59.905 42.0424 61.4889 44.1561 62.2629C44.1918 62.2748 44.174 62.3284 44.1383 62.3165C41.7685 61.5544 39.7441 59.8455 38.6783 57.5829C38.1603 56.4814 37.7077 55.1 38.2257 53.9211V53.9271Z" fill="#001640"/>
<path d="M48.1394 47.5263C48.4848 46.5022 49.0921 45.6745 50.009 45.1267C51.0689 44.4956 52.4264 44.3051 53.6351 44.567C54.6592 44.7874 55.4035 45.5793 55.731 46.5736C56.1061 47.7049 55.8501 48.9315 55.4333 50.0032C55.4214 50.033 55.3737 50.0211 55.3857 49.9854C55.6893 48.997 55.8441 47.9193 55.5107 46.907C55.1832 45.9008 54.4211 45.1863 53.397 45.0136C51.4499 44.6921 48.9313 45.484 48.2466 47.5561C48.2228 47.6275 48.1156 47.5858 48.1394 47.5203V47.5263Z" fill="#001640"/>
<path d="M45.2278 62.3522C45.2278 62.3522 42.5662 60.03 41.4647 61.0482C40.3632 62.0664 42.852 65.7699 44.4894 65.9544C46.1268 66.139 46.3233 64.6267 46.3233 64.6267L45.2278 62.3462V62.3522Z" fill="#D3766A"/>
<path d="M42.203 62.0961C42.203 62.0961 42.1851 62.1378 42.203 62.1378C43.3581 62.3045 44.156 63.1381 44.7931 64.0491C44.3822 63.7395 43.9059 63.6323 43.4772 64.1324C43.4534 64.1563 43.4891 64.1979 43.5189 64.1801C43.9238 63.9836 44.2572 63.9776 44.6323 64.2515C44.9003 64.4421 45.1146 64.7159 45.3349 64.9601C45.4064 65.0434 45.5671 64.9482 45.5016 64.8529C45.5016 64.8469 45.4897 64.841 45.4897 64.8291C45.1861 63.4834 43.6796 61.8698 42.209 62.0902L42.203 62.0961Z" fill="#001640"/>
<path d="M79.3037 59.774L55.225 61.7031L54.5105 56.261L78.2677 51.8847L79.3037 59.774Z" fill="#001640"/>
<path d="M92.9984 60.2146L68.8304 61.4591L67.7051 52.9684L91.373 47.9073L92.9984 60.2146Z" fill="#37474F"/>
<path d="M104.764 61.5722L86.2403 61.1732L84.5969 48.735L102.388 43.5429L104.764 61.5722Z" fill="#455A64"/>
<path d="M104.811 52.3908C105.413 56.9398 105.347 60.6969 104.663 60.7862C103.984 60.8755 102.942 57.2613 102.34 52.7183C101.739 48.1693 101.805 44.4122 102.489 44.3229C103.168 44.2336 104.21 47.8478 104.811 52.3908Z" fill="#3F80FF"/>
<path d="M42.3878 82.65C50.4498 90.0987 71.3013 101.834 75.6003 99.7385C83.5372 95.8742 85.127 72.3195 85.8712 67.7169C86.1868 65.752 69.4377 65.5377 69.0507 67.6335C68.7172 69.4555 68.7649 81.7747 67.2704 82.3225C66.6571 82.5488 57.2792 79.4288 46.7463 77.7318C38.6784 76.4338 40.0002 80.4469 42.3878 82.65Z" fill="#D3766A"/>
<path d="M68.8065 71.4502C68.8065 71.4502 69.0923 69.5151 68.3838 64.7874C67.83 61.0958 69.0983 52.0395 78.0533 46.5915C81.483 44.5015 84.4481 46.002 81.2686 48.8005C79.0298 50.7772 77.3091 51.9502 76.7553 52.8017C76.7553 52.8017 81.3222 52.5754 82.9596 54.6534C83.692 55.5823 85.633 58.1664 86.8536 60.3932C86.8536 60.3932 86.4428 60.7922 85.8474 61.2209C85.8474 61.2209 87.8242 63.9062 85.9486 67.1512L85.4246 71.2001L68.8005 71.4502H68.8065Z" fill="#D3766A"/>
<path d="M68.9077 61.4769C69.9199 59.8038 72.123 56.2968 74.9274 54.052C78.0414 51.5572 84.7101 47.5977 86.5261 49.9139C87.8599 51.6108 85.4425 53.3494 85.4425 53.3494C85.4425 53.3494 88.5446 52.2955 89.4139 54.0877C90.2058 55.7251 88.2588 56.9577 88.2588 56.9577C88.2588 56.9577 90.2475 56.6421 90.706 58.3628C91.2538 60.4349 86.9906 60.7624 85.7342 63.3465C85.4544 63.9241 68.9077 61.4769 68.9077 61.4769Z" fill="#D3766A"/>
<path d="M77.0113 57.7794C78.22 56.3623 81.7984 53.8496 85.365 53.3197C85.4483 53.3078 85.496 53.3614 85.4245 53.3911C81.6198 54.8082 78.3629 56.8624 77.0291 57.8151C77.0113 57.827 76.9934 57.8032 77.0053 57.7853L77.0113 57.7794Z" fill="#001640"/>
<path d="M79.6193 60.8458C80.7864 59.7323 84.5911 57.303 88.2231 56.8922C88.3065 56.8803 88.3541 56.9398 88.2827 56.9636C84.2457 58.2855 81.0245 60.0062 79.6431 60.8755C79.6253 60.8874 79.6074 60.8577 79.6193 60.8458Z" fill="#001640"/>
<path d="M85.6748 69.3186C85.6748 68.5862 85.7284 67.8598 85.7879 67.1334V67.1096L85.8177 67.0619C86.1928 66.3832 86.4369 65.5913 86.5084 64.8053C86.5917 64.0134 86.4965 63.2155 86.2881 62.4296L86.2583 62.3284L86.3238 62.2748C86.8001 61.8818 87.3063 61.5305 87.8659 61.2745C87.6278 61.465 87.3956 61.6555 87.1753 61.8639C86.9609 62.0723 86.7347 62.2748 86.5322 62.4891L86.5679 62.3343C86.7168 62.7273 86.8537 63.1381 86.9073 63.5668C86.9847 63.9896 86.9788 64.4242 86.949 64.8529C86.9133 65.2816 86.8121 65.7044 86.6811 66.1093C86.5322 66.5142 86.3595 66.9012 86.0916 67.2644L86.1214 67.187C85.9963 67.9015 85.8594 68.6219 85.6748 69.3305V69.3186Z" fill="#001640"/>
<path d="M68.8064 71.4501L85.4305 71.2001C85.4305 71.2001 88.4791 74.2188 87.7348 77.3865C86.9905 80.5541 80.5898 99.1907 75.0464 100.155C69.5031 101.114 50.2056 89.8605 43.6917 84.2874C37.1778 78.7142 38.4758 76.3802 47.0856 77.2674C55.6953 78.1546 67.0619 81.8521 67.2464 81.7687C67.431 81.6854 66.651 77.3567 66.7522 75.6359C66.8535 73.9152 68.8124 71.4561 68.8124 71.4561L68.8064 71.4501Z" fill="#3F80FF"/>
<path d="M83.4239 87.0739C83.6264 87.2764 83.8467 87.4431 84.0789 87.586C84.1206 87.4967 84.1563 87.4014 84.198 87.3121C83.9538 87.2109 83.6978 87.1215 83.4239 87.0739ZM77.0887 74.9333C76.6897 74.7368 76.2849 74.5582 75.8323 74.4689C76.1598 74.7964 76.5349 75.0286 76.922 75.243C77.3209 75.4394 77.7258 75.6181 78.1783 75.7074C77.8508 75.3799 77.4757 75.1477 77.0887 74.9333ZM64.7814 84.6148C64.3884 84.4124 63.9835 84.2338 63.531 84.1504C63.8585 84.4779 64.2336 84.7101 64.6206 84.9185C65.0136 85.1209 65.4185 85.2996 65.871 85.3829C65.5435 85.0614 65.1684 84.8232 64.7814 84.6148ZM75.7549 86.1689C75.362 85.9724 74.9571 85.7938 74.5046 85.7044C74.832 86.0319 75.2072 86.2641 75.5942 86.4785C75.9872 86.675 76.392 86.8536 76.8446 86.9429C76.5171 86.6154 76.142 86.3832 75.7549 86.1689ZM63.9002 94.1534C63.6977 94.5464 63.5191 94.9513 63.4357 95.4038C63.7632 95.0763 63.9954 94.7012 64.2038 94.3142C64.4063 93.9212 64.5849 93.5163 64.6683 93.0638C64.3467 93.3913 64.1145 93.7664 63.9002 94.1534ZM79.2381 91.4979C79.0357 91.8908 78.8571 92.2957 78.7737 92.7482C79.1012 92.4208 79.3334 92.0457 79.5418 91.6586C79.7442 91.2657 79.9229 90.8608 80.0062 90.4082C79.6847 90.7357 79.4525 91.1108 79.2381 91.4979ZM71.0154 80.3159C70.813 80.7089 70.6343 81.1138 70.551 81.5663C70.8785 81.2388 71.1107 80.8637 71.3191 80.4767C71.5215 80.0837 71.7001 79.6788 71.7835 79.2203C71.462 79.5478 71.2298 79.9289 71.0154 80.3159ZM73.4983 95.7491C73.0815 95.8861 72.6647 96.0469 72.2837 96.3029C72.7481 96.3029 73.1768 96.2017 73.5995 96.0766C74.0223 95.9397 74.4331 95.7789 74.8142 95.5229C74.3557 95.5229 73.9211 95.6241 73.4983 95.7491ZM59.0416 90.0927C58.6188 90.2296 58.208 90.3904 57.8269 90.6464C58.2854 90.6464 58.72 90.5452 59.1428 90.4202C59.5596 90.2832 59.9704 90.1224 60.3574 89.8664C59.893 89.8664 59.4643 89.9676 59.0416 90.0927ZM80.9529 81.5127C80.816 81.0959 80.6552 80.6851 80.3992 80.2981C80.3992 80.7625 80.5004 81.1912 80.6255 81.6199C80.7624 82.0367 80.9232 82.4475 81.1792 82.8286C81.1792 82.3701 81.078 81.9414 80.9529 81.5127ZM56.7075 83.3109C56.5706 82.8881 56.4098 82.4773 56.1478 82.0962C56.1478 82.5606 56.255 82.9893 56.38 83.4121C56.511 83.8348 56.6718 84.2457 56.9338 84.6267C56.9338 84.1623 56.8325 83.7336 56.7075 83.3109ZM69.1637 89.4199C69.0267 89.0031 68.866 88.5922 68.6099 88.2052C68.6099 88.6696 68.7111 89.0983 68.8362 89.527C68.9731 89.9438 69.1339 90.3547 69.3899 90.7357C69.3899 90.2773 69.2887 89.8486 69.1637 89.4199ZM69.4733 73.7961C69.0803 73.5936 68.6754 73.415 68.2169 73.3317C68.5444 73.6532 68.9255 73.8854 69.3125 74.0998C69.7055 74.2962 70.1104 74.4749 70.5629 74.5642C70.2354 74.2367 69.8603 74.0045 69.4733 73.7961ZM85.1387 75.6538C84.9422 76.0468 84.7636 76.4517 84.6743 76.9042C85.0018 76.5826 85.234 76.2016 85.4483 75.8146C85.6448 75.4216 85.8235 75.0167 85.9128 74.5642C85.5853 74.8917 85.3531 75.2668 85.1387 75.6538ZM52.0752 87.5919C51.6822 87.3895 51.2773 87.2109 50.8248 87.1275C51.1523 87.455 51.5274 87.6872 51.9144 87.8956C52.3074 88.098 52.7123 88.2767 53.1648 88.36C52.8373 88.0385 52.4622 87.8063 52.0752 87.5919ZM48.3181 80.0718C48.1156 80.4648 47.937 80.8697 47.8536 81.3222C48.1752 80.9947 48.4074 80.6196 48.6217 80.2326C48.8182 79.8396 48.9968 79.4347 49.0862 78.9822C48.7587 79.3097 48.5265 79.6848 48.3181 80.0718ZM43.4297 83.5014C43.4297 83.7158 43.4535 83.9182 43.4952 84.1147C43.5607 84.1742 43.6262 84.2278 43.6917 84.2874L43.906 84.466C43.7869 84.1325 43.6381 83.8051 43.4297 83.5014Z" fill="white"/>
<path d="M52.7957 77.3031C53.5697 77.6008 54.3318 77.9462 55.0761 78.3034C55.4155 78.4642 55.7549 78.6309 56.1002 78.7857C54.3199 78.3689 52.5277 77.9759 50.7355 77.6246C50.6819 77.6127 50.6641 77.702 50.7177 77.7199C53.4804 78.5773 56.2789 79.3513 59.0833 80.0658C61.8401 80.7625 64.6028 81.602 67.4251 81.9593C67.5085 81.9712 67.5263 81.8521 67.4549 81.8223C64.7576 80.7803 61.8877 80.1968 59.0833 79.4942C58.3986 79.3216 57.7138 79.1668 57.0231 79.006C56.7909 78.8572 56.5528 78.7142 56.3086 78.5773C55.9514 78.3808 55.5763 78.2081 55.2012 78.0474C54.4212 77.7199 53.6293 77.4579 52.8254 77.2138C52.7659 77.1959 52.7361 77.2793 52.7957 77.3031Z" fill="#001640"/>
<path d="M46.3949 88.1636C46.9248 88.372 47.4667 88.5506 48.0085 88.7173C48.2526 88.7947 48.5027 88.8662 48.7468 88.9495C47.6393 88.3303 46.5438 87.6932 45.4542 87.0323C45.4184 87.0144 45.4542 86.9549 45.4839 86.9727C47.2881 87.8242 49.0743 88.7352 50.8427 89.6819C52.5754 90.6107 53.409 90.9025 55.0344 92.0457C55.0821 92.0814 55.0404 92.1469 54.9928 92.129C53.141 91.4026 52.361 90.9322 50.6045 89.9796C50.1758 89.7474 49.7531 89.5032 49.3244 89.2651C49.1398 89.2353 48.9552 89.1996 48.7706 89.1519C48.5027 89.0865 48.2288 89.0031 47.9668 88.9078C47.425 88.7113 46.901 88.4791 46.3711 88.2231C46.3354 88.2052 46.3532 88.1457 46.3949 88.1636Z" fill="#001640"/>
<path d="M68.7172 71.3966C67.8657 72.4148 67.1274 73.6532 66.7582 74.9393C66.3712 76.285 66.5975 77.6782 66.7582 79.0418C66.9428 80.5601 67.1929 82.0724 67.5144 83.5669C67.4727 83.6682 67.4846 83.8289 67.4787 83.9361C67.4787 84.0969 67.4787 84.2576 67.4846 84.4124C67.5084 85.0317 67.5859 85.6449 67.7109 86.2523C67.7168 86.288 67.7645 86.2761 67.7645 86.2404C67.7049 85.7938 67.6692 85.3532 67.6394 84.9066C67.6216 84.6744 67.6097 84.4422 67.6037 84.204C67.6037 84.1088 67.6037 84.0135 67.5978 83.9182C67.8895 85.2341 68.2349 86.5381 68.6457 87.8182C68.6636 87.8718 68.7469 87.8599 68.7291 87.8004C68.1098 85.0198 67.5978 82.2213 67.2584 79.393C67.0917 77.9938 66.7999 76.4755 67.2584 75.106C67.6871 73.8497 68.2527 72.641 68.8184 71.4442C68.8481 71.3787 68.7529 71.349 68.7172 71.3906V71.3966Z" fill="#001640"/>
</g>
<defs>
<clipPath id="clip0_1_4155">
<rect width="276.286" height="256" fill="white"/>
</clipPath>
</defs>
</svg>
