<svg width="256" height="256" viewBox="0 0 256 256" fill="none" xmlns="http://www.w3.org/2000/svg">
<g clip-path="url(#clip0_1_6610)">
<path d="M223.266 216.882C216.659 223.692 210.748 227.694 206.223 230.716C162.084 260.187 111.63 251.693 96.03 248.79C70.8625 244.106 49.6172 240.801 31.3644 224.31C-10.1131 186.838 -8.0953 108.666 23.5984 60.243C27.3562 54.5013 59.0014 7.59295 109.566 0.983582C110.803 0.821753 111.726 0.72941 112.534 0.644382C120.356 -0.183961 168.828 -4.55516 208.353 28.5584C214.01 33.2981 223.116 41.8485 231.558 54.888C262.43 102.567 262.528 176.412 223.267 216.882H223.266Z" fill="url(#paint0_linear_1_6610)"/>
<g opacity="0.3">
<path d="M62.667 39.3838C62.4046 39.8172 61.8405 39.9562 61.4071 39.6938C60.5641 39.1845 59.6873 38.7036 58.7995 38.2657C58.3506 38.0444 58.1632 37.5041 58.3753 37.0524C58.3781 37.0469 58.3808 37.0414 58.3826 37.0359C58.6066 36.5815 59.157 36.395 59.6114 36.6199C60.5458 37.0817 61.4693 37.5873 62.3561 38.1239C62.7621 38.369 62.9093 38.8791 62.7118 39.2988C62.6981 39.328 62.6834 39.3564 62.6661 39.3838H62.667ZM54.3333 36.4289C53.3952 36.1162 52.4343 35.8401 51.477 35.6087C50.9851 35.4899 50.6816 34.9943 50.8005 34.5015C50.9211 34.0078 51.4158 33.7061 51.9077 33.825C52.9143 34.0682 53.9264 34.358 54.9138 34.6881C55.3947 34.8481 55.6544 35.3683 55.4935 35.8492C55.4816 35.8839 55.4679 35.9178 55.4533 35.9507C55.2585 36.3658 54.7785 36.5788 54.3333 36.4298V36.4289ZM46.7182 34.8051C45.7362 34.7091 44.7387 34.6542 43.7513 34.6433C43.2448 34.6378 42.8388 34.2218 42.8443 33.7153C42.8507 33.2087 43.2658 32.8028 43.7723 32.8083C44.8119 32.8202 45.8633 32.8778 46.8964 32.9783C47.4011 33.0277 47.7696 33.4766 47.7202 33.9813C47.7092 34.0892 47.6809 34.1898 47.6379 34.283C47.477 34.6241 47.115 34.8444 46.7182 34.806V34.8051ZM38.9312 34.9258C37.9511 35.0519 36.9655 35.222 36.0018 35.4314C35.5063 35.5383 35.018 35.2238 34.9102 34.7292C34.8032 34.2337 35.1177 33.7454 35.6123 33.6375C36.6281 33.4172 37.6658 33.238 38.6962 33.1054C39.1991 33.0405 39.659 33.3962 39.7239 33.8981C39.7467 34.0782 39.7166 34.2519 39.6443 34.4055C39.5154 34.6798 39.2539 34.8846 38.9312 34.9258ZM31.3646 36.7781C30.4393 37.1182 29.5159 37.5022 28.6199 37.9201C28.16 38.134 27.6142 37.9356 27.4002 37.4766C27.1854 37.0167 27.3847 36.4709 27.8446 36.257C28.7872 35.8172 29.7591 35.4131 30.7328 35.0556C31.2082 34.881 31.7358 35.1251 31.9104 35.6005C31.9982 35.8401 31.9799 36.0933 31.8793 36.3073C31.7806 36.5185 31.6014 36.6913 31.3655 36.7781H31.3646ZM24.3968 40.2579C23.5684 40.7946 22.7529 41.3733 21.973 41.9786C21.5725 42.2894 20.9956 42.2163 20.6857 41.8158C20.3748 41.4154 20.448 40.8394 20.8484 40.5285C21.6695 39.8912 22.528 39.2823 23.3993 38.7173C23.8244 38.4421 24.3931 38.5637 24.6683 38.9889C24.8475 39.265 24.8585 39.6014 24.7277 39.8794C24.6573 40.0293 24.5458 40.1619 24.3968 40.2579ZM7.59677 69.9036C7.09025 69.8972 6.68431 69.4812 6.69163 68.9737C6.70534 67.936 6.76477 66.8837 6.86808 65.8487C6.91837 65.344 7.3682 64.9765 7.87197 65.0268C8.37574 65.0771 8.7442 65.5269 8.69391 66.0307C8.59608 67.0144 8.5394 68.0128 8.5266 68.9984C8.52477 69.1337 8.49368 69.2617 8.43974 69.3769C8.29163 69.6924 7.96797 69.9091 7.59677 69.9045V69.9036ZM18.3771 45.1932C17.6896 45.8999 17.024 46.6451 16.3995 47.4094C16.0786 47.8016 15.4999 47.8592 15.1076 47.5383C14.7154 47.2174 14.6596 46.6405 14.9787 46.2474C15.6361 45.4437 16.3373 44.6583 17.0615 43.9141C17.4153 43.5511 17.9959 43.5429 18.3588 43.8967C18.6468 44.1774 18.7117 44.6007 18.5499 44.9454C18.5079 45.035 18.4503 45.1191 18.3771 45.195V45.1932ZM8.39768 61.9465C7.9058 61.8268 7.60317 61.3303 7.72294 60.8375C7.96888 59.8291 8.26146 58.8179 8.59243 57.8314C8.75151 57.3495 9.27357 57.0926 9.75448 57.2535C10.2345 57.4144 10.4932 57.9347 10.3323 58.4156C10.0178 59.3527 9.73986 60.3136 9.50671 61.2718C9.49208 61.3331 9.47106 61.3907 9.44546 61.4455C9.26351 61.8323 8.82923 62.0508 8.3986 61.9456L8.39768 61.9465ZM13.6119 51.3491C13.0999 52.192 12.6171 53.067 12.1783 53.952C11.9533 54.4064 11.4029 54.5911 10.9485 54.3662C10.5005 54.144 10.314 53.6046 10.5261 53.1539C10.5289 53.1484 10.5316 53.142 10.5344 53.1365C10.9961 52.2048 11.5044 51.2823 12.0429 50.3955C12.3063 49.9621 12.8704 49.825 13.3037 50.0883C13.7079 50.3342 13.8551 50.8426 13.6576 51.2622C13.6439 51.2915 13.6283 51.3207 13.6109 51.3491H13.6119Z" fill="#8CB3FF"/>
<path d="M8.93797 75.8007C9.01477 75.6371 9.04494 75.4496 9.01203 75.2576C8.93249 74.7914 8.86209 74.315 8.80174 73.8432C8.73774 73.3404 8.27786 72.9847 7.775 73.0496C7.27214 73.1136 6.91649 73.5735 6.9814 74.0764C7.04449 74.5728 7.11946 75.0739 7.20266 75.5639C7.28769 76.0631 7.76129 76.3996 8.26049 76.3155C8.5686 76.2634 8.81454 76.0631 8.93797 75.8007Z" fill="#8CB3FF"/>
</g>
<g opacity="0.3">
<path d="M24.0155 99.3655C24.2038 98.9651 24.0795 98.475 23.7019 98.2181C23.3115 97.9521 22.9193 97.6723 22.5371 97.3879C22.1302 97.0853 21.5552 97.1694 21.2534 97.5763C20.9499 97.985 21.0349 98.5582 21.4418 98.8599C21.8441 99.1589 22.2564 99.4533 22.6678 99.734C23.0866 100.019 23.6571 99.9114 23.9433 99.4926C23.9716 99.4515 23.9954 99.4085 24.0155 99.3655Z" fill="#8CB3FF"/>
<path d="M75.6891 86.7146C75.4514 87.1617 74.8956 87.3317 74.4476 87.094C74.0005 86.8563 73.8313 86.3013 74.0681 85.8533C74.5207 85.0012 74.9449 84.1171 75.3326 83.2147C75.5301 82.7502 76.0722 82.5345 76.5385 82.7338C77.0048 82.9331 77.2197 83.4735 77.0194 83.9397C76.8512 84.3311 76.6775 84.7169 76.4974 85.0991C76.2414 85.644 75.9689 86.188 75.6891 86.7146ZM77.5488 79.8611C77.0606 79.7258 76.7744 79.2202 76.9097 78.732C77.1694 77.7939 77.3925 76.8357 77.5726 75.8821C77.6649 75.3848 78.1458 75.0565 78.6441 75.1507C79.1415 75.2449 79.4697 75.7249 79.3756 76.2222C79.1863 77.2261 78.9513 78.2355 78.6779 79.222C78.6633 79.2732 78.645 79.3226 78.624 79.3683C78.4375 79.7651 77.9858 79.9818 77.5488 79.8611ZM73.045 90.9587C72.4471 91.7861 71.8053 92.5999 71.1378 93.3761C70.8078 93.7601 70.2281 93.804 69.8432 93.473C69.4592 93.1429 69.4162 92.5633 69.7463 92.1793C70.3808 91.4424 70.9897 90.6698 71.5575 89.8844C71.8546 89.4739 72.4279 89.3816 72.8393 89.6778C73.2023 89.9402 73.3166 90.4193 73.1328 90.8115C73.109 90.8627 73.0798 90.9121 73.0459 90.9596L73.045 90.9587ZM79.0025 72.1262C78.496 72.1016 78.1056 71.6709 78.1312 71.1653C78.1788 70.1953 78.1852 69.2115 78.1504 68.2414C78.1321 67.7349 78.528 67.3098 79.0345 67.2915C79.541 67.2732 79.9662 67.6691 79.9845 68.1756C80.021 69.1969 80.0137 70.2337 79.9644 71.2549C79.958 71.3784 79.9287 71.4954 79.8784 71.6005C79.7248 71.9269 79.3856 72.1454 79.0025 72.1262ZM67.627 96.9308C66.8617 97.6065 66.0581 98.2584 65.2352 98.8682C64.8283 99.1708 64.2542 99.0858 63.9515 98.6789C63.6489 98.2721 63.7339 97.697 64.1408 97.3953C64.9216 96.8147 65.6859 96.1957 66.4119 95.5548C66.7922 95.2193 67.3719 95.2559 67.7074 95.6353C67.957 95.9187 68.0009 96.3128 67.8501 96.6337C67.7979 96.7434 67.7239 96.8449 67.627 96.9308ZM61.0304 101.57C60.1344 102.063 59.2073 102.524 58.2738 102.94C57.8112 103.146 57.2681 102.938 57.0615 102.475C56.8549 102.012 57.0624 101.469 57.5259 101.264C58.4119 100.869 59.2933 100.431 60.1454 99.9617C60.5897 99.7176 61.1474 99.8794 61.3915 100.324C61.5387 100.592 61.5378 100.901 61.4171 101.157C61.3376 101.326 61.2059 101.472 61.0295 101.569L61.0304 101.57ZM53.579 104.661C52.5961 104.947 51.5904 105.195 50.5902 105.398C50.0937 105.499 49.6091 105.178 49.5086 104.681C49.408 104.184 49.7289 103.7 50.2254 103.6C51.1762 103.407 52.1316 103.172 53.066 102.899C53.5524 102.758 54.0617 103.037 54.2034 103.524C54.2683 103.748 54.2446 103.975 54.1531 104.171C54.0452 104.401 53.8423 104.585 53.579 104.662V104.661ZM45.6311 106.054C44.6098 106.118 43.5739 106.14 42.5518 106.118C42.0452 106.107 41.643 105.687 41.6539 105.18C41.6649 104.675 42.0846 104.273 42.5911 104.284C43.5611 104.305 44.5449 104.284 45.515 104.223C46.0206 104.191 46.4567 104.575 46.4887 105.081C46.4987 105.241 46.4676 105.393 46.4036 105.529C46.2656 105.822 45.9767 106.033 45.6302 106.054L45.6311 106.054ZM37.5671 105.665C36.5586 105.503 35.5447 105.296 34.5518 105.049C34.0599 104.926 33.76 104.429 33.8825 103.937C34.0041 103.447 34.5024 103.145 34.9943 103.268C35.9378 103.503 36.9015 103.699 37.8587 103.853C38.3588 103.933 38.6999 104.404 38.6194 104.904C38.6057 104.991 38.5801 105.073 38.5435 105.15C38.3735 105.51 37.9803 105.732 37.5671 105.665ZM29.7929 103.517C29.0935 103.239 28.3949 102.936 27.7147 102.617C27.4688 102.501 27.2247 102.383 26.9824 102.262C26.5289 102.036 26.3323 101.487 26.5691 101.032C26.794 100.579 27.3453 100.393 27.7997 100.619C28.0301 100.733 28.2624 100.846 28.4964 100.956C29.1428 101.26 29.8066 101.548 30.4713 101.813C30.9422 102.001 31.1716 102.534 30.9842 103.004C30.9769 103.022 30.9696 103.039 30.9614 103.057C30.7566 103.492 30.2455 103.698 29.792 103.517H29.7929Z" fill="#8CB3FF"/>
<path d="M79.3864 63.7249C79.4641 63.5594 79.4934 63.3701 79.4596 63.1772C79.3736 62.6881 79.2767 62.1907 79.1697 61.7006C79.0619 61.2051 78.5736 60.8915 78.0781 60.9994C77.5825 61.1073 77.2689 61.5955 77.3768 62.091C77.4783 62.5573 77.5707 63.0291 77.652 63.4936C77.7389 63.9928 78.2143 64.3265 78.7135 64.2396C79.0198 64.1857 79.263 63.9864 79.3864 63.7258V63.7249Z" fill="#8CB3FF"/>
</g>
<path d="M66.5234 54.6688C66.4438 54.5033 66.2692 54.4073 66.0873 54.4284L60.9014 55.0254C59.3746 53.1246 57.5341 51.4542 55.4203 50.1029L55.455 44.8869C55.4559 44.704 55.3407 44.5404 55.1689 44.4791L49.2635 42.3991C49.0907 42.3379 48.8987 42.3936 48.7853 42.5372L45.5433 46.6231C43.0491 46.3516 40.5677 46.4997 38.1869 47.0236L34.5206 43.3079C34.3917 43.1781 34.1951 43.1433 34.0297 43.222L28.383 45.9264C28.2185 46.0051 28.1215 46.1806 28.1426 46.3625L28.7396 51.5484C26.8388 53.0752 25.1684 54.9157 23.8171 57.0295L18.6011 56.9948C18.4182 56.9939 18.2546 57.1081 18.1933 57.2809L16.1133 63.1863C16.053 63.3591 16.1078 63.5511 16.2514 63.6645L20.3382 66.9065C20.0667 69.4007 20.2148 71.8821 20.7387 74.2629L17.023 77.9292C16.8932 78.0581 16.8585 78.2547 16.9371 78.4202L19.6415 84.0668C19.7202 84.2314 19.8957 84.3283 20.0777 84.3072L25.2635 83.7102C26.7903 85.611 28.6308 87.2814 30.7446 88.6327L30.7099 93.8487C30.709 94.0316 30.8233 94.1952 30.9961 94.2565L36.9014 96.3365C37.0742 96.3968 37.2662 96.342 37.3796 96.1984L40.6217 92.1125C43.1158 92.384 45.5972 92.2359 47.978 91.712L51.6443 95.4277C51.7723 95.5575 51.9698 95.5923 52.1353 95.5136L57.7819 92.8092C57.9465 92.7306 58.0434 92.555 58.0223 92.3731L57.4253 87.1872C59.3261 85.6604 60.9965 83.8199 62.3478 81.7061L67.5638 81.7408C67.7467 81.7418 67.9103 81.6275 67.9716 81.4547L70.0516 75.5493C70.1119 75.3765 70.0571 75.1845 69.9135 75.0711L65.8276 71.8291C66.0991 69.3349 65.951 66.8535 65.4271 64.4727L69.1428 60.8064C69.2726 60.6775 69.3074 60.4809 69.2287 60.3164L66.5243 54.6697L66.5234 54.6688Z" fill="#8CB3FF"/>
<path d="M48.3255 72.8484C46.4064 75.7394 42.4933 76.5312 39.6014 74.6112C38.2007 73.6813 37.2462 72.2624 36.9134 70.6139C36.5806 68.9664 36.9088 67.2877 37.8386 65.8871C39.7577 62.9961 43.6709 62.2043 46.5627 64.1243C49.1931 65.8706 50.0855 69.2672 48.7799 72.0429C48.6501 72.3181 48.4992 72.5879 48.3264 72.8484H48.3255ZM38.3525 70.3241C38.6075 71.5876 39.3399 72.6756 40.4142 73.3888C42.6304 74.8599 45.632 74.2537 47.1031 72.0365C48.576 69.8194 47.968 66.8187 45.7509 65.3476C43.5346 63.8765 40.533 64.4827 39.0619 66.6999C38.9285 66.901 38.8114 67.1095 38.7109 67.3234C38.2729 68.2541 38.1449 69.2973 38.3525 70.3241Z" fill="#B2CCFF"/>
<path d="M56.95 76.0284C57.174 75.552 57.376 75.0611 57.5534 74.5573C57.6092 74.3991 57.6622 74.2391 57.7134 74.0791C57.9639 73.2883 58.1504 72.48 58.2711 71.6645C58.2729 71.6535 58.2748 71.6426 58.2757 71.6316C58.2802 71.6005 58.2848 71.5685 58.2894 71.5365C58.2985 71.4752 58.3058 71.4131 58.3141 71.3518C58.3351 71.19 58.2464 71.0391 58.1065 70.9733C58.0727 70.9568 58.0352 70.9459 57.9959 70.9413C57.7948 70.9157 57.6119 71.0583 57.5854 71.2595C57.4537 72.2944 57.2096 73.3221 56.8604 74.3132C55.126 79.2403 51.0226 82.6689 46.2766 83.7733C43.637 84.3886 40.7991 84.2844 38.059 83.3189C37.5781 83.1498 37.1099 82.9578 36.6555 82.7438C33.5954 81.3038 31.1433 78.8755 29.6631 75.7843C27.9616 72.2332 27.7458 68.2323 29.0542 64.5184C31.7568 56.8494 40.1893 52.8119 47.8555 55.5127C48.3282 55.6791 48.7909 55.8693 49.2416 56.0814C51.1936 57.0003 52.9234 58.3351 54.3013 59.9982C54.3369 60.0412 54.3799 60.0741 54.4274 60.096C54.5518 60.1545 54.7045 60.1399 54.8178 60.0467C54.9733 59.9168 54.9961 59.6864 54.8663 59.5301C53.4199 57.7847 51.6041 56.3822 49.5543 55.4176C49.0816 55.1955 48.5961 54.9961 48.0997 54.8206C40.0512 51.9854 31.1963 56.2286 28.362 64.2743C26.9888 68.1728 27.2155 72.3731 29.002 76.1015C30.5563 79.3472 33.1301 81.8963 36.3429 83.4085C36.8201 83.6334 37.312 83.8346 37.8167 84.0129C41.7161 85.3861 45.9154 85.1594 49.6439 83.3738C52.8905 81.8186 55.4396 79.2439 56.9509 76.0302L56.95 76.0284Z" fill="#B2CCFF"/>
<g opacity="0.3">
<path d="M97.9226 21.2554C98.0269 21.0332 97.9784 20.7607 97.7855 20.5898C97.4253 20.2707 97.0504 19.958 96.6719 19.6608C96.4259 19.4679 96.0694 19.5109 95.8765 19.7568C95.6817 20.0028 95.7265 20.3594 95.9725 20.5523C96.3336 20.8357 96.6902 21.1338 97.034 21.4382C97.268 21.6458 97.6264 21.6238 97.834 21.3898C97.8705 21.3477 97.8998 21.3029 97.9226 21.2544V21.2554Z" fill="#8CB3FF"/>
<path d="M94.3816 18.7265C94.2198 18.9943 93.8724 19.0812 93.6036 18.9203C92.9261 18.5134 92.2203 18.1367 91.5062 17.8003C91.3553 17.729 91.2036 17.6604 91.05 17.5918C90.7647 17.4647 90.6358 17.1292 90.7629 16.8439C90.8936 16.5779 91.2255 16.4298 91.5117 16.5569C91.6717 16.6282 91.8308 16.7013 91.9889 16.7754C92.7377 17.1274 93.4783 17.5233 94.1887 17.9502C94.4401 18.1011 94.5325 18.4165 94.41 18.6762C94.4017 18.6935 94.3926 18.7109 94.3825 18.7274L94.3816 18.7265ZM88.3537 16.5834C87.4376 16.3036 86.4959 16.0778 85.5551 15.9123C85.247 15.8583 85.0413 15.5649 85.0952 15.2558C85.1492 14.9495 85.4427 14.7411 85.7517 14.7959C86.7373 14.9687 87.7247 15.2055 88.6847 15.4999C88.9837 15.5914 89.1528 15.9086 89.0614 16.2076C89.0532 16.2341 89.0431 16.2597 89.0321 16.2835C88.9142 16.534 88.6271 16.6666 88.3537 16.5834ZM82.6952 15.5923C81.7398 15.5447 80.7716 15.5575 79.8171 15.6298C79.5053 15.6535 79.2328 15.4186 79.21 15.1068C79.1862 14.7941 79.4203 14.5226 79.733 14.4988C80.7341 14.4238 81.7499 14.411 82.751 14.4595C83.0637 14.475 83.3051 14.7411 83.2895 15.0538C83.2859 15.1297 83.2667 15.2019 83.2365 15.2668C83.1414 15.4689 82.932 15.6033 82.6962 15.5923H82.6952ZM76.9654 16.022C76.0264 16.2113 75.0902 16.4599 74.1851 16.7626C73.8879 16.8613 73.567 16.7013 73.4683 16.4042C73.3695 16.1079 73.5295 15.7861 73.8267 15.6874C74.7766 15.3701 75.7576 15.1095 76.7432 14.9111C77.0504 14.849 77.3494 15.0483 77.4107 15.3555C77.4354 15.4789 77.418 15.6014 77.3677 15.7075C77.2936 15.8647 77.1492 15.9854 76.9663 16.022H76.9654ZM71.5144 17.8378C70.6495 18.2492 69.8029 18.7182 68.9965 19.2311C68.7332 19.3994 68.3821 19.3207 68.2139 19.0574C68.0457 18.7932 68.1234 18.443 68.3876 18.2748C69.2324 17.7372 70.1202 17.2462 71.0262 16.8147C71.3087 16.6803 71.647 16.8001 71.7814 17.0826C71.8573 17.2426 71.8518 17.4199 71.7823 17.5681C71.7284 17.6823 71.636 17.7802 71.5135 17.8387L71.5144 17.8378ZM66.6697 20.9217C65.9318 21.5306 65.226 22.1907 64.5695 22.8855C64.3547 23.1132 63.9963 23.1233 63.7686 22.9084C63.541 22.6935 63.5309 22.3361 63.7458 22.1066C64.4333 21.3788 65.1748 20.6858 65.9483 20.0467C66.1896 19.8474 66.5471 19.8821 66.7455 20.1235C66.89 20.2981 66.9119 20.534 66.8214 20.726C66.7867 20.7991 66.7364 20.8668 66.6697 20.9217ZM62.7273 25.0945C62.1631 25.8634 61.6402 26.678 61.173 27.5155C61.0203 27.7889 60.6747 27.8867 60.4013 27.734C60.1279 27.5813 60.0338 27.2394 60.1828 26.9623C60.6738 26.0846 61.2223 25.2307 61.8139 24.4243C61.9995 24.1719 62.3542 24.1171 62.6066 24.3027C62.8287 24.4654 62.8973 24.7598 62.7839 25.0003C62.7684 25.0332 62.7501 25.0643 62.7282 25.0945H62.7273ZM58.3122 33.2371C58.0095 33.1557 57.8313 32.8449 57.9126 32.5422C58.1385 31.7057 58.4146 30.8673 58.7309 30.0517C58.7785 29.9274 58.8278 29.8049 58.8772 29.6823C58.986 29.3907 59.3261 29.2535 59.6159 29.3724C59.9058 29.4903 60.0447 29.8213 59.9268 30.1111C59.8793 30.2263 59.8335 30.3415 59.7887 30.4604C59.4852 31.2403 59.2228 32.0403 59.007 32.8375C58.9979 32.8705 58.9869 32.9015 58.9723 32.9317C58.8571 33.1758 58.581 33.3102 58.3122 33.2371Z" fill="#8CB3FF"/>
</g>
<g opacity="0.3">
<path d="M103.552 49.6412C103.12 50.5299 102.629 51.3994 102.095 52.2259C101.925 52.4883 101.575 52.5642 101.312 52.3941C101.049 52.2241 100.977 51.873 101.144 51.6106C101.653 50.8225 102.12 49.9923 102.532 49.1448C102.67 48.8632 103.009 48.7461 103.29 48.8833C103.568 49.0195 103.686 49.3541 103.555 49.6339C103.554 49.6357 103.553 49.6385 103.551 49.6412H103.552ZM103.966 47.2485C103.671 47.1461 103.514 46.8234 103.616 46.5281C103.923 45.6385 104.18 44.7205 104.378 43.8008C104.445 43.4972 104.746 43.3006 105.052 43.3665C105.359 43.4323 105.552 43.734 105.487 44.0403C105.278 45.004 105.009 45.9658 104.687 46.8984C104.681 46.9185 104.673 46.9368 104.665 46.955C104.543 47.2138 104.244 47.3445 103.967 47.2485H103.966ZM100.335 54.6168C99.7 55.3747 99.0143 56.1006 98.2966 56.7736C98.068 56.9875 97.7087 56.9756 97.4957 56.747C97.2817 56.5185 97.2936 56.161 97.5213 55.9461C98.207 55.3043 98.8607 54.6122 99.466 53.889C99.6671 53.6485 100.025 53.6174 100.264 53.8177C100.466 53.9868 100.52 54.2657 100.413 54.4933C100.393 54.5363 100.367 54.5774 100.335 54.6158V54.6168ZM105.318 41.6184C105.007 41.59 104.777 41.3148 104.804 41.003C104.889 40.065 104.916 39.1132 104.886 38.1733C104.876 37.8606 105.122 37.5992 105.434 37.5882C105.746 37.5781 106.009 37.8232 106.019 38.1368C106.051 39.1233 106.022 40.1217 105.934 41.1045C105.927 41.1722 105.91 41.2362 105.882 41.2947C105.784 41.5041 105.562 41.6403 105.318 41.6184ZM96.0118 58.6661C95.2155 59.2476 94.3752 59.787 93.5149 60.2689C93.2415 60.4216 92.8959 60.3237 92.7432 60.0513C92.5905 59.7779 92.6875 59.4323 92.9608 59.2796C93.7828 58.8206 94.5837 58.3059 95.3425 57.7509C95.5949 57.5662 95.9496 57.6211 96.1343 57.8744C96.2614 58.0472 96.2751 58.2684 96.1892 58.4504C96.1498 58.5336 96.0904 58.6085 96.0109 58.6661H96.0118ZM90.8433 61.5598C89.9291 61.9347 88.9846 62.2574 88.0347 62.5189C87.7329 62.6021 87.4212 62.4248 87.338 62.123C87.2548 61.8213 87.4312 61.5096 87.7339 61.4264C88.639 61.1768 89.5405 60.8686 90.4127 60.5102C90.7025 60.3914 91.0335 60.5304 91.1524 60.8193C91.2155 60.972 91.2063 61.1365 91.1405 61.2755C91.082 61.3989 90.9796 61.5022 90.8433 61.558V61.5598ZM85.13 63.1333C84.1517 63.2787 83.1569 63.3656 82.1723 63.3912C81.8587 63.3994 81.599 63.1525 81.5908 62.8389C81.5825 62.5262 81.8303 62.2666 82.1421 62.2574C83.0811 62.2337 84.0301 62.1505 84.9627 62.0115C85.2726 61.9658 85.5606 62.1788 85.6063 62.4888C85.6237 62.604 85.6045 62.7155 85.5588 62.8133C85.4811 62.9788 85.3238 63.1041 85.1291 63.1333H85.13Z" fill="#8CB3FF"/>
<path d="M105.692 35.4816C105.739 35.3829 105.757 35.2695 105.739 35.1534C105.664 34.6743 105.574 34.1952 105.473 33.729C105.406 33.4236 105.104 33.2288 104.798 33.2956C104.493 33.3632 104.299 33.664 104.365 33.9703C104.462 34.4147 104.547 34.8718 104.619 35.3289C104.667 35.638 104.957 35.8501 105.266 35.8007C105.459 35.7706 105.614 35.6462 105.691 35.4816H105.692Z" fill="#8CB3FF"/>
</g>
<path d="M97.0568 29.0131C97.0038 28.9025 96.8867 28.8376 96.7651 28.8522L93.2954 29.2518C92.2742 27.98 91.0417 26.8627 89.6282 25.9585L89.6511 22.4678C89.6511 22.3452 89.5752 22.2355 89.4591 22.1953L85.5075 20.8038C85.3923 20.7626 85.2634 20.8001 85.1875 20.8961L83.0179 23.6307C81.3494 23.4488 79.689 23.5475 78.0954 23.8986L75.6424 21.4127C75.5565 21.3258 75.4248 21.303 75.3142 21.3551L71.5354 23.1654C71.4248 23.2184 71.3599 23.3354 71.3745 23.457L71.7741 26.9267C70.5023 27.948 69.3841 29.1804 68.4799 30.5948L64.9892 30.572C64.8666 30.572 64.7569 30.6479 64.7167 30.764L63.3242 34.7155C63.284 34.8307 63.3206 34.9596 63.4166 35.0355L66.1512 37.2051C65.9693 38.8737 66.068 40.534 66.4191 42.1276L63.9332 44.5807C63.8463 44.6666 63.8234 44.7983 63.8756 44.9089L65.6858 48.6876C65.7389 48.7982 65.8559 48.8623 65.9775 48.8485L69.4472 48.449C70.4685 49.7208 71.7 50.8389 73.1144 51.7422L73.0915 55.233C73.0915 55.3555 73.1674 55.4652 73.2835 55.5054L77.2351 56.8979C77.3503 56.9381 77.4792 56.9016 77.5551 56.8056L79.7247 54.0709C81.3933 54.2529 83.0536 54.1541 84.6472 53.803L87.1002 56.289C87.1862 56.3758 87.3178 56.3987 87.4284 56.3466L91.2072 54.5363C91.3178 54.4833 91.3827 54.3662 91.3681 54.2446L90.9686 50.7749C92.2403 49.7537 93.3585 48.5212 94.2627 47.1077L97.7535 47.1306C97.876 47.1306 97.9857 47.0547 98.0259 46.9386L99.4175 42.9871C99.4577 42.8719 99.4211 42.7429 99.3251 42.6671L96.5905 40.4975C96.7724 38.8289 96.6737 37.1685 96.3226 35.5749L98.8085 33.1219C98.8954 33.036 98.9183 32.9043 98.8661 32.7937L97.0559 29.015L97.0568 29.0131Z" fill="#8CB3FF"/>
<path d="M84.9425 41.2198C84.3098 42.1743 83.3425 42.8244 82.2197 43.0511C81.0979 43.2779 79.9541 43.0539 78.9996 42.4212C77.0303 41.1137 76.4927 38.4532 77.7983 36.4783C79.1057 34.509 81.7717 33.9704 83.7402 35.2779C84.6947 35.9115 85.3448 36.8779 85.5715 38.0006C85.7562 38.9131 85.6428 39.8392 85.2533 40.6667C85.1637 40.8568 85.0595 41.0424 84.9416 41.2207L84.9425 41.2198ZM79.6268 41.4767C80.329 41.943 81.1701 42.1076 81.9957 41.9403C82.8213 41.7729 83.5327 41.2948 83.998 40.5935C84.4634 39.8913 84.628 39.0502 84.4616 38.2246C84.2952 37.399 83.8161 36.6877 83.1148 36.2223C81.6657 35.2605 79.7055 35.6573 78.7436 37.1055C78.6568 37.2363 78.5818 37.3707 78.5169 37.5087C77.8623 38.8993 78.3093 40.6017 79.6277 41.4767H79.6268Z" fill="#B2CCFF"/>
<path d="M90.9457 43.4323C91.0984 43.1077 91.2355 42.7731 91.358 42.4275C91.5994 41.7418 91.7722 41.0314 91.87 40.3128C91.8746 40.2808 91.8783 40.2478 91.8828 40.2158C91.9148 39.9662 91.7786 39.734 91.5628 39.6316C91.5098 39.6069 91.4531 39.5896 91.3919 39.5822C91.081 39.5429 90.7994 39.7633 90.7583 40.0732C90.6732 40.7443 90.5151 41.4099 90.2892 42.0499C90.2774 42.0856 90.2636 42.1203 90.2518 42.155C89.7032 43.6664 88.799 44.9829 87.6259 46.0206C86.9896 46.5838 86.2728 47.0648 85.4892 47.4478C85.4828 47.4506 85.4764 47.4542 85.47 47.457C85.4499 47.4661 85.4307 47.4762 85.4115 47.4853C83.113 48.5861 80.5228 48.7269 78.1183 47.8794C77.8074 47.7697 77.5039 47.6453 77.2095 47.5073C75.2282 46.5747 73.641 45.003 72.6819 43.0017C71.5811 40.7032 71.4412 38.113 72.2879 35.7093C73.1354 33.3075 74.8671 31.3747 77.1656 30.273C79.4641 29.1722 82.0543 29.0314 84.4588 29.8789C84.7651 29.9868 85.0641 30.1093 85.3558 30.2465C86.6202 30.8417 87.7393 31.7057 88.6307 32.7818C88.6856 32.8485 88.7523 32.8988 88.8255 32.9326C89.0175 33.0232 89.2543 33.0012 89.428 32.8558C89.6684 32.6556 89.7023 32.299 89.503 32.0577C88.5046 30.8536 87.252 29.8862 85.8385 29.2206C85.5121 29.067 85.1775 28.9299 84.8355 28.8092C82.1457 27.862 79.2474 28.0183 76.6755 29.2508C74.1036 30.4833 72.1644 32.6401 71.2182 35.3317C70.27 38.0216 70.4273 40.9189 71.6598 43.4908C72.7322 45.7299 74.5078 47.489 76.724 48.5313C77.0531 48.6858 77.3923 48.8257 77.7398 48.9482C82.9475 50.7822 88.6435 48.3228 90.9448 43.4305L90.9457 43.4323Z" fill="#B2CCFF"/>
<path d="M212.163 73.3265C211.748 73.3265 211.404 72.9983 211.387 72.5796C211.374 72.2312 209.858 37.578 194.746 25.1272C190.295 21.4591 185.032 20.0639 179.111 20.981C166.608 22.9156 157.957 32.1261 153.397 48.3556C149.961 60.586 150.28 72.4086 150.284 72.5265C150.297 72.9553 149.96 73.3137 149.531 73.3265C149.101 73.3265 148.744 73.0038 148.731 72.5741C148.728 72.4543 148.399 60.4251 151.893 47.9688C153.956 40.6152 156.927 34.5426 160.725 29.919C165.512 24.0923 171.619 20.5686 178.874 19.4459C185.254 18.4585 190.928 19.967 195.738 23.9304C202.328 29.3613 207.226 39.2027 210.298 53.1821C212.571 63.5327 212.938 72.4324 212.941 72.5211C212.957 72.9499 212.623 73.3101 212.195 73.3275C212.185 73.3275 212.175 73.3275 212.164 73.3275L212.163 73.3265Z" fill="url(#paint1_linear_1_6610)"/>
<path d="M114.842 63.0564C114.959 62.2609 115.635 61.6667 116.44 61.6539L204.239 60.2029L232.988 231.588H94.26C89.4948 231.588 114.842 63.0573 114.842 63.0573V63.0564Z" fill="#3F80FF"/>
<path d="M219.593 61.5094L204.239 60.2029L232.987 231.588H250.185C253.672 231.588 256.278 228.384 255.566 224.971L221.965 63.6123C221.726 62.4648 220.761 61.61 219.593 61.5103V61.5094Z" fill="#0041BF"/>
<path d="M192.997 72.9582C192.581 72.9582 192.238 72.6299 192.221 72.2112C192.208 71.8628 190.692 37.2096 175.58 24.7588C171.129 21.0907 165.867 19.6964 159.945 20.6125C147.442 22.5472 138.79 31.7577 134.231 47.9872C130.795 60.2176 131.114 72.0402 131.118 72.1582C131.131 72.587 130.794 72.9454 130.365 72.9582C129.947 72.9646 129.578 72.6345 129.565 72.2057C129.562 72.0859 129.233 60.0567 132.727 47.6004C134.789 40.2468 137.761 34.1741 141.559 29.5506C146.346 23.7239 152.453 20.2002 159.708 19.0775C166.088 18.0891 171.762 19.5986 176.571 23.562C183.162 28.9929 188.06 38.8343 191.131 52.8137C193.405 63.1643 193.772 72.064 193.775 72.1527C193.791 72.5815 193.457 72.9417 193.029 72.9591C193.019 72.9591 193.008 72.9591 192.997 72.9591L192.997 72.9582Z" fill="url(#paint2_linear_1_6610)"/>
<path d="M138.077 135.982C138.064 135.66 136.665 103.653 122.68 92.128C118.536 88.7131 113.64 87.4148 108.13 88.2678C96.5312 90.0626 88.5102 98.5947 84.288 113.627C81.1163 124.922 81.4116 135.835 81.4144 135.944L80.3474 135.977C80.3438 135.866 80.0421 124.811 83.253 113.361C85.1465 106.611 87.872 101.038 91.3554 96.7981C95.7367 91.4651 101.325 88.2404 107.965 87.2128C113.789 86.3113 118.97 87.6882 123.358 91.3051C129.398 96.2825 133.89 105.316 136.711 118.155C138.803 127.675 139.14 135.859 139.143 135.941L138.077 135.982Z" fill="url(#paint3_linear_1_6610)"/>
<path d="M36.5532 224.904L50.7292 131.46C50.8645 130.567 51.6242 129.903 52.5266 129.888L134.439 128.534L152.158 234.026H43.5264C38.9184 234.026 35.8812 229.463 36.5532 224.904Z" fill="#B2CCFF"/>
<path d="M150.233 129.878L134.44 128.534L152.159 234.026L169.65 233.574C171.377 233.53 172.641 231.931 172.287 230.241L151.457 130.883C151.297 130.327 150.81 129.926 150.234 129.878H150.233Z" fill="#8CB3FF"/>
<path d="M120.42 135.642C120.407 135.321 119.008 103.313 105.022 91.7887C100.879 88.3739 95.9835 87.0756 90.4722 87.9286C78.8736 89.7234 70.8526 98.2555 66.6304 113.288C63.4587 124.582 63.7541 135.496 63.7568 135.605L62.6898 135.638C62.6862 135.527 62.3845 124.472 65.5954 113.022C67.4889 106.272 70.2144 100.698 73.6978 96.4589C78.0791 91.1259 83.6672 87.9012 90.3077 86.8735C96.1326 85.972 101.312 87.349 105.701 90.9659C111.74 95.9432 116.232 104.976 119.054 117.816C121.146 127.336 121.482 135.52 121.486 135.601L120.42 135.642Z" fill="url(#paint4_linear_1_6610)"/>
<path d="M61.0395 166.708C61.0331 166.536 60.2815 149.366 52.8018 143.204C50.6047 141.394 48.0073 140.705 45.0843 141.158C30.2765 143.449 30.8178 166.446 30.8251 166.678L29.9556 166.705C29.9538 166.645 29.791 160.669 31.5254 154.483C33.8477 146.203 38.4905 141.298 44.9508 140.297C48.1307 139.805 50.9586 140.557 53.3558 142.533C61.1355 148.944 61.8806 165.953 61.908 166.674L61.0386 166.708H61.0395Z" fill="url(#paint5_linear_1_6610)"/>
<path d="M15.5922 159.571L61.4601 158.813L74.9257 235.176H6.37987C4.03838 235.176 13.4829 168.563 14.6496 160.402C14.7172 159.931 15.1168 159.58 15.5922 159.571Z" fill="#8CB3FF"/>
<path d="M69.5323 159.501L61.4601 158.814L74.9257 235.176H83.9424C84.9947 235.176 85.7819 234.212 85.5716 233.181L70.7291 160.566C70.6103 159.986 70.1229 159.552 69.5323 159.502V159.501Z" fill="#7D97F4"/>
<path d="M51.5318 166.525C51.5254 166.353 50.7739 149.183 43.2941 143.021C41.0971 141.211 38.4996 140.522 35.5766 140.975C20.7688 143.266 21.3101 166.263 21.3174 166.495L20.4479 166.522C20.4461 166.462 20.2834 160.487 22.0178 154.301C24.34 146.02 28.9828 141.115 35.4431 140.114C38.623 139.623 41.4509 140.374 43.8481 142.35C51.6278 148.761 52.3729 165.77 52.4004 166.492L51.5309 166.525H51.5318Z" fill="url(#paint6_linear_1_6610)"/>
<path d="M193.234 243.13C193.234 243.13 193.957 247.221 194.311 251.271C194.45 252.854 193.23 254.228 191.642 254.295C186.248 254.52 174.711 254.957 170.571 254.771C169.948 254.744 169.541 254.106 169.772 253.528C169.965 253.043 170.337 252.651 170.811 252.432L189.869 243.674L193.234 243.13Z" fill="url(#paint7_linear_1_6610)"/>
<path d="M193.827 240.726L193.246 245.62C193.246 245.62 189.908 247.174 187.628 245.424L189.01 239.971L193.827 240.727V240.726Z" fill="url(#paint8_linear_1_6610)"/>
<path d="M193.39 148.717C193.64 149.995 194.736 212.494 188.056 240.502C187.947 240.959 188.178 241.43 188.613 241.607C189.638 242.026 191.647 242.632 194.054 242.714C194.8 242.738 195.469 242.254 195.679 241.539C197.589 235.04 206.739 202.482 207.933 171.38C209.267 136.626 207.933 170.197 207.933 170.197L207.151 148.715L193.391 148.718L193.39 148.717Z" fill="url(#paint9_linear_1_6610)"/>
<path d="M215.157 245.264C215.157 245.264 216.307 247.33 217.422 252.818C217.623 253.809 216.93 254.758 215.923 254.857C214.142 255.033 211.4 255.258 209.204 255.242C208.192 255.235 207.401 254.353 207.524 253.349C207.767 251.345 208.525 248.058 210.866 245.497L215.157 245.264Z" fill="url(#paint10_linear_1_6610)"/>
<path d="M216.167 238.97L214.81 246.371C214.81 246.371 213.469 247.368 210.815 246.645L211.462 238.682L216.167 238.969V238.97Z" fill="url(#paint11_linear_1_6610)"/>
<path d="M219.833 150.634C225.296 183.61 218.648 232.135 216.405 241.633C216.268 242.214 215.799 242.66 215.209 242.758C214.208 242.923 212.56 243.059 210.936 242.587C210.376 242.424 209.983 241.919 209.96 241.337C209.659 233.659 210.201 186.519 205.11 167.889C204.852 166.945 204.275 166.122 203.478 165.555L193.596 158.53L192.838 147.174L219.834 150.633L219.833 150.634Z" fill="url(#paint12_linear_1_6610)"/>
<path d="M187.628 89.3293C187.628 89.3293 212.729 83.0738 230.283 92.3702L219.833 150.634C219.833 150.634 203.206 151.974 192.837 148.676L187.628 89.3284V89.3293Z" fill="#8CB3FF"/>
<path d="M215.779 71.8729L217.699 88.4059C217.822 88.6399 217.763 88.9289 217.552 89.0889C216.266 90.0781 211.546 93.088 204.865 90.1449C204.169 89.8386 203.637 89.247 203.427 88.5156L206.146 74.1869L215.779 71.8719V71.8729Z" fill="url(#paint13_linear_1_6610)"/>
<path d="M200.372 63.2538C200.372 63.2538 197.927 75.2008 199.859 79.167C201.792 83.1331 208.506 80.8301 213.446 75.6909L214.311 63.3133L200.372 63.2529V63.2538Z" fill="url(#paint14_linear_1_6610)"/>
<path d="M211.57 70.2902C211.298 70.2546 211.121 69.9858 211.201 69.7216C211.442 68.9207 211.863 67.3069 211.773 66.0297C211.773 66.0297 212.574 65.1072 208.829 65.3001C205.085 65.493 199.486 65.7298 197.513 63.0756C195.589 60.4882 196.248 52.3611 202.441 56.8576C202.677 57.0285 203.013 56.9353 203.117 56.6637C203.569 55.4916 204.916 52.938 207.952 53.3513C210.792 53.738 211.616 55.4935 211.855 56.4297C211.925 56.7049 212.231 56.8457 212.484 56.7149C213.681 56.0996 216.664 54.9952 219.004 57.6987C220.933 59.9259 220.601 61.6064 220.118 62.5225C219.962 62.8196 220.172 63.1698 220.507 63.1735C221.416 63.1835 222.701 63.573 223.168 65.5579C223.814 68.3026 220.725 68.9536 219.829 69.0834C219.683 69.1044 219.555 69.1949 219.491 69.3284C218.994 70.3616 216.693 74.8022 213.222 76.2779C212.922 76.4059 212.59 76.1691 212.605 75.8436L212.829 70.8644C212.839 70.6331 212.671 70.4329 212.442 70.4018L211.569 70.2875L211.57 70.2902Z" fill="url(#paint15_linear_1_6610)"/>
<path d="M211.134 71.1167C211.134 71.1167 214.252 67.2849 215.203 69.4582C216.154 71.6314 212.647 73.7645 210.515 73.4783L211.134 71.1167Z" fill="url(#paint16_linear_1_6610)"/>
<path d="M234.874 124.353C234.874 124.353 233.163 146.232 218.76 147.175C218.76 147.175 212.587 146.609 209.907 148.714C207.227 150.819 208.526 154.061 208.526 154.061L220.146 152.644C220.146 152.644 236.765 155.411 246.757 127.594L234.874 124.353Z" fill="url(#paint17_linear_1_6610)"/>
<path d="M230.283 92.3702C230.283 92.3702 249.998 104.098 246.757 127.594C246.757 127.594 239.715 130.647 234.594 126.554C234.594 126.554 230.603 111.29 221.936 110.529L230.284 92.3702H230.283Z" fill="#8CB3FF"/>
<path d="M174.529 100.778C174.529 100.778 165.061 105.179 153.989 93.4309C146.421 85.4016 141.791 90.3251 140.328 93.5662C138.864 96.8073 142.365 96.5367 143.586 96.5367C144.806 96.5367 144.958 93.0112 147.11 93.4912C149.263 93.9712 148.63 93.3285 148.764 95.4889C148.9 97.6494 160.47 122.048 174.784 110.165L174.529 100.779V100.778Z" fill="url(#paint18_linear_1_6610)"/>
<path d="M130.991 104.187L163.524 102.362C166.49 102.195 169.093 104.106 169.472 106.73L176.757 157.087C177.191 160.089 174.565 162.747 171.163 162.747H128.713C125.492 162.747 122.925 160.35 123.08 157.486L125.712 108.954C125.851 106.4 128.123 104.347 130.991 104.187Z" fill="#002B7F"/>
<path d="M136.485 109.303C135.985 109.303 135.57 108.909 135.549 108.404C135.522 107.758 135.013 92.5467 145.717 90.8736C148.007 90.5179 150.039 91.0546 151.757 92.4736C156.968 96.7808 157.409 107.863 157.425 108.333C157.444 108.85 157.039 109.284 156.521 109.302C156.007 109.31 155.569 108.915 155.552 108.398C155.548 108.292 155.124 97.6869 150.562 93.9182C149.259 92.8411 147.769 92.4535 146.008 92.7269C136.938 94.144 137.418 108.184 137.424 108.325C137.445 108.843 137.043 109.28 136.526 109.302C136.512 109.302 136.499 109.302 136.486 109.302L136.485 109.303Z" fill="#B2CCFF"/>
<path d="M187.628 89.3293L172.354 100.778C172.354 100.778 172.084 109.355 174.109 113.411L191.123 109.23L187.628 89.3293Z" fill="#8CB3FF"/>
<path d="M90.474 178.953V192.515C90.474 197.565 92.3739 202.43 95.1113 206.672L97.7023 209.987C100.702 214.63 105.837 217.286 111.364 217.286H168.111L168.541 215.827L182.45 164.87L194.121 158.577L192.383 155.399L179.343 162.469L174.872 178.953H90.474ZM94.5234 183.002H173.877L168.28 203.652L165.327 214.587H111.364C107.079 214.587 103.057 212.08 100.735 208.483L98.3762 204.721C96.0164 201.072 94.5225 196.86 94.5225 192.515V183.001L94.5234 183.002Z" fill="#002B7F"/>
<path d="M98.3094 235.78C98.3094 236.785 99.1268 237.803 100.136 237.803H166.719C167.728 237.803 168.491 236.377 168.491 235.373V203.976C168.491 203.63 168.422 203.665 168.254 203.39L165.327 214.587H164.442V233.754H100.137C99.1277 233.754 98.3104 234.772 98.3104 235.781L98.3094 235.78Z" fill="#002B7F"/>
<path d="M135.274 180.859H132.844V215.037H135.274V180.859Z" fill="#002B7F"/>
<path d="M156.742 180.859H154.312V215.037H156.742V180.859Z" fill="#002B7F"/>
<path d="M114.312 180.859H111.882V215.037H114.312V180.859Z" fill="#002B7F"/>
<path d="M172.953 190.913H93.9016V193.086H172.953V190.913Z" fill="#002B7F"/>
<path d="M169.503 202.81H95.882V204.984H169.503V202.81Z" fill="#002B7F"/>
<path d="M150.34 248.149C150.34 252.484 153.855 256 158.191 256C162.526 256 166.041 252.485 166.041 248.149C166.041 243.812 162.527 240.299 158.191 240.299C153.854 240.299 150.34 243.813 150.34 248.149ZM153.453 248.149C153.453 245.532 155.574 243.41 158.191 243.41C160.809 243.41 162.93 245.531 162.93 248.149C162.93 250.766 160.808 252.887 158.191 252.887C155.575 252.887 153.453 250.766 153.453 248.149Z" fill="#002B7F"/>
<path d="M101.555 248.149C101.555 252.484 105.07 256 109.405 256C113.741 256 117.256 252.485 117.256 248.149C117.256 243.812 113.742 240.299 109.405 240.299C105.069 240.299 101.555 243.813 101.555 248.149ZM104.667 248.149C104.667 245.532 106.789 243.41 109.406 243.41C112.024 243.41 114.145 245.531 114.145 248.149C114.145 250.766 112.024 252.887 109.406 252.887C106.789 252.887 104.667 250.766 104.667 248.149Z" fill="#002B7F"/>
<path d="M184.294 158.575C184.294 160.612 185.946 162.264 187.983 162.264H200.255C202.292 162.264 203.943 160.612 203.943 158.575C203.943 156.538 202.292 154.887 200.255 154.887H187.983C185.946 154.887 184.294 156.538 184.294 158.575Z" fill="#002B7F"/>
</g>
<defs>
<linearGradient id="paint0_linear_1_6610" x1="276.997" y1="293.31" x2="98.0425" y2="102.81" gradientUnits="userSpaceOnUse">
<stop stop-color="#DAE3FE"/>
<stop offset="1" stop-color="#E9EFFD"/>
</linearGradient>
<linearGradient id="paint1_linear_1_6610" x1="185.85" y1="18.7273" x2="199.52" y2="-121.08" gradientUnits="userSpaceOnUse">
<stop stop-color="#09005D"/>
<stop offset="1" stop-color="#1A0F91"/>
</linearGradient>
<linearGradient id="paint2_linear_1_6610" x1="170.772" y1="-65.3843" x2="167.355" y2="-14.432" gradientUnits="userSpaceOnUse">
<stop stop-color="#09005D"/>
<stop offset="1" stop-color="#1A0F91"/>
</linearGradient>
<linearGradient id="paint3_linear_1_6610" x1="121.593" y1="12.4443" x2="135.262" y2="-127.363" gradientUnits="userSpaceOnUse">
<stop stop-color="#09005D"/>
<stop offset="1" stop-color="#1A0F91"/>
</linearGradient>
<linearGradient id="paint4_linear_1_6610" x1="109.241" y1="-1.34864" x2="102.716" y2="49.6036" gradientUnits="userSpaceOnUse">
<stop stop-color="#09005D"/>
<stop offset="1" stop-color="#1A0F91"/>
</linearGradient>
<linearGradient id="paint5_linear_1_6610" x1="61.4646" y1="6.5656" x2="75.1341" y2="-133.242" gradientUnits="userSpaceOnUse">
<stop stop-color="#09005D"/>
<stop offset="1" stop-color="#1A0F91"/>
</linearGradient>
<linearGradient id="paint6_linear_1_6610" x1="71.1158" y1="59.7761" x2="53.0961" y2="113.213" gradientUnits="userSpaceOnUse">
<stop stop-color="#09005D"/>
<stop offset="1" stop-color="#1A0F91"/>
</linearGradient>
<linearGradient id="paint7_linear_1_6610" x1="171.174" y1="237.475" x2="240.962" y2="313.384" gradientUnits="userSpaceOnUse">
<stop stop-color="#09005D"/>
<stop offset="1" stop-color="#1A0F91"/>
</linearGradient>
<linearGradient id="paint8_linear_1_6610" x1="193.826" y1="243.113" x2="187.627" y2="243.113" gradientUnits="userSpaceOnUse">
<stop stop-color="#FEBBBA"/>
<stop offset="1" stop-color="#FF928E"/>
</linearGradient>
<linearGradient id="paint9_linear_1_6610" x1="187.083" y1="125.918" x2="203.907" y2="234.573" gradientUnits="userSpaceOnUse">
<stop stop-color="#09005D"/>
<stop offset="1" stop-color="#1A0F91"/>
</linearGradient>
<linearGradient id="paint10_linear_1_6610" x1="186.83" y1="223.082" x2="256.617" y2="298.991" gradientUnits="userSpaceOnUse">
<stop stop-color="#09005D"/>
<stop offset="1" stop-color="#1A0F91"/>
</linearGradient>
<linearGradient id="paint11_linear_1_6610" x1="216.166" y1="242.795" x2="210.815" y2="242.795" gradientUnits="userSpaceOnUse">
<stop stop-color="#FEBBBA"/>
<stop offset="1" stop-color="#FF928E"/>
</linearGradient>
<linearGradient id="paint12_linear_1_6610" x1="201.923" y1="123.621" x2="218.747" y2="232.275" gradientUnits="userSpaceOnUse">
<stop stop-color="#09005D"/>
<stop offset="1" stop-color="#1A0F91"/>
</linearGradient>
<linearGradient id="paint13_linear_1_6610" x1="215.39" y1="108.357" x2="208.4" y2="74.3396" gradientUnits="userSpaceOnUse">
<stop stop-color="#FEBBBA"/>
<stop offset="1" stop-color="#FF928E"/>
</linearGradient>
<linearGradient id="paint14_linear_1_6610" x1="201.037" y1="75.9799" x2="214.749" y2="60.8626" gradientUnits="userSpaceOnUse">
<stop stop-color="#FEBBBA"/>
<stop offset="1" stop-color="#FF928E"/>
</linearGradient>
<linearGradient id="paint15_linear_1_6610" x1="220.43" y1="47.5117" x2="203.861" y2="70.9248" gradientUnits="userSpaceOnUse">
<stop stop-color="#09005D"/>
<stop offset="1" stop-color="#1A0F91"/>
</linearGradient>
<linearGradient id="paint16_linear_1_6610" x1="206.548" y1="78.4881" x2="218.883" y2="64.8873" gradientUnits="userSpaceOnUse">
<stop stop-color="#FEBBBA"/>
<stop offset="1" stop-color="#FF928E"/>
</linearGradient>
<linearGradient id="paint17_linear_1_6610" x1="227.208" y1="151.364" x2="228.077" y2="115.221" gradientUnits="userSpaceOnUse">
<stop stop-color="#FEBBBA"/>
<stop offset="1" stop-color="#FF928E"/>
</linearGradient>
<linearGradient id="paint18_linear_1_6610" x1="157.184" y1="110.709" x2="157.867" y2="82.3031" gradientUnits="userSpaceOnUse">
<stop stop-color="#FEBBBA"/>
<stop offset="1" stop-color="#FF928E"/>
</linearGradient>
<clipPath id="clip0_1_6610">
<rect width="255.684" height="256" fill="white"/>
</clipPath>
</defs>
</svg>
